<?xml version="1.0" standalone="no"?>
<!DOCTYPE svg PUBLIC "-//W3C//DTD SVG 20010904//EN"
 "http://www.w3.org/TR/2001/REC-SVG-20010904/DTD/svg10.dtd">
<svg version="1.0" xmlns="http://www.w3.org/2000/svg"
 width="675.000000pt" height="675.000000pt" viewBox="0 0 675.000000 675.000000"
 preserveAspectRatio="xMidYMid meet">
<metadata>
Created by potrace 1.11, written by Peter Selinger 2001-2013
</metadata>
<g transform="translate(0.000000,675.000000) scale(0.100000,-0.100000)"
fill="#000000" stroke="none">
<path d="M3382 6338 c-7 -7 -12 -8 -12 -2 0 5 -5 2 -10 -6 -9 -13 -10 -13 -10
0 0 13 -1 13 -10 0 -9 -13 -10 -13 -10 0 0 13 -1 13 -10 0 -7 -11 -10 -11 -10
-2 0 7 -4 10 -10 7 -19 -12 -50 -14 -56 -4 -4 6 -13 4 -24 -6 -10 -9 -21 -12
-24 -7 -3 5 -23 6 -48 2 -29 -6 -48 -4 -57 3 -11 9 -13 9 -8 0 4 -6 3 -14 -3
-18 -5 -3 -10 0 -10 7 0 9 -3 9 -10 -2 -8 -12 -10 -12 -10 -1 0 11 -3 11 -15
1 -8 -6 -19 -9 -25 -5 -5 3 -10 1 -10 -5 0 -8 -6 -8 -20 0 -19 10 -25 6 -20
-15 1 -5 -4 -5 -11 2 -8 8 -18 9 -31 2 -10 -5 -23 -7 -28 -4 -6 3 -10 1 -10
-5 0 -8 -6 -8 -19 0 -16 8 -22 6 -30 -7 -7 -12 -10 -14 -11 -4 0 11 -3 11 -15
1 -8 -7 -22 -10 -30 -6 -8 3 -15 0 -15 -7 0 -8 -3 -8 -9 2 -6 9 -10 10 -16 2
-5 -9 -11 -9 -23 1 -13 11 -14 11 -7 -1 6 -11 4 -13 -8 -8 -10 3 -17 2 -17 -3
0 -5 -9 -7 -20 -5 -11 2 -20 -1 -20 -6 0 -6 -5 -7 -10 -4 -6 4 -17 1 -25 -5
-8 -6 -18 -9 -24 -6 -5 3 -11 0 -14 -8 -4 -9 -14 -12 -28 -9 -16 5 -20 3 -14
-6 6 -10 3 -11 -14 -2 -17 9 -20 9 -15 -3 4 -11 -1 -14 -20 -12 -14 2 -23 -1
-20 -5 3 -5 -4 -9 -15 -9 -12 0 -21 -5 -21 -11 0 -5 -4 -8 -9 -4 -5 3 -13 0
-17 -6 -4 -8 -9 -7 -15 2 -7 11 -9 10 -9 -3 0 -10 -11 -19 -30 -23 -16 -4 -30
-10 -30 -13 0 -4 -11 -12 -25 -19 -19 -8 -23 -8 -19 0 4 7 -3 2 -15 -11 -12
-12 -26 -20 -32 -17 -5 4 -9 1 -9 -4 0 -6 -7 -11 -16 -11 -9 0 -12 -5 -8 -12
4 -6 3 -8 -4 -5 -14 9 -43 -3 -36 -14 3 -5 -8 -12 -25 -15 -16 -4 -32 -13 -35
-21 -3 -8 -10 -11 -16 -8 -5 3 -10 1 -10 -6 0 -9 -3 -9 -14 0 -11 9 -14 9 -12
-1 0 -7 -3 -15 -9 -17 -5 -2 -15 -11 -21 -19 -7 -9 -16 -12 -25 -7 -8 5 -11 5
-7 0 4 -4 0 -14 -10 -22 -9 -8 -11 -11 -3 -7 9 5 12 3 7 -5 -4 -6 -11 -9 -15
-6 -8 4 -52 -25 -101 -67 -8 -7 -18 -12 -22 -11 -5 2 -7 0 -5 -5 1 -4 -8 -17
-21 -30 -12 -12 -22 -19 -22 -14 -1 4 -7 -4 -15 -18 -9 -16 -15 -19 -15 -10
-1 9 -5 6 -10 -7 -5 -13 -17 -23 -25 -23 -9 0 -14 -3 -12 -7 3 -5 -1 -14 -9
-21 -8 -7 -14 -9 -14 -5 0 4 -6 -3 -13 -17 -7 -14 -21 -24 -30 -24 -15 2 -16
-1 -5 -14 10 -12 10 -14 1 -8 -8 4 -13 2 -13 -4 0 -6 -5 -8 -12 -4 -8 5 -9 2
-5 -10 5 -12 2 -16 -10 -14 -10 2 -18 -4 -18 -12 -1 -8 -6 -14 -12 -13 -6 1
-17 -4 -23 -12 -7 -8 -9 -15 -6 -15 4 0 2 -9 -4 -20 -6 -11 -15 -18 -20 -15
-6 3 -7 0 -5 -7 3 -8 -7 -25 -21 -38 -15 -14 -24 -18 -19 -10 5 9 5 12 -1 7
-5 -5 -10 -13 -10 -18 -1 -5 -2 -14 -3 -20 0 -5 -5 -7 -11 -4 -5 3 -10 -1 -10
-10 0 -8 -9 -23 -19 -32 -11 -9 -17 -23 -13 -31 3 -10 1 -13 -6 -8 -7 4 -12 3
-12 -3 0 -5 -8 -17 -17 -27 -10 -9 -18 -24 -20 -33 -1 -8 -9 -21 -17 -27 -9
-6 -16 -19 -16 -28 0 -10 -4 -15 -9 -12 -5 4 -12 -7 -16 -24 -4 -17 -10 -28
-15 -25 -5 3 -11 1 -15 -5 -3 -5 -1 -10 4 -10 6 0 3 -8 -7 -18 -9 -11 -20 -17
-24 -15 -4 2 -5 -6 -3 -17 2 -11 0 -20 -6 -20 -5 0 -8 -3 -8 -7 3 -21 -2 -34
-11 -28 -7 4 -9 -3 -6 -19 3 -18 1 -23 -10 -19 -9 3 -14 -2 -14 -16 0 -12 -4
-21 -10 -21 -5 0 -7 -6 -4 -14 3 -8 0 -17 -7 -22 -8 -5 -10 -3 -4 6 5 8 4 11
-3 7 -5 -4 -9 -15 -7 -25 4 -25 -14 -54 -28 -45 -7 4 -5 -2 3 -12 14 -17 13
-18 -4 -12 -16 6 -17 5 -6 -8 10 -12 10 -15 0 -15 -7 0 -10 -8 -7 -19 3 -14 1
-18 -9 -14 -10 4 -12 0 -8 -11 3 -9 1 -16 -6 -16 -6 0 -8 -5 -5 -11 4 -6 -1
-16 -11 -24 -11 -7 -16 -17 -11 -21 4 -4 7 -2 7 4 0 7 5 12 12 12 6 0 4 -8 -6
-19 -10 -11 -15 -25 -10 -32 5 -8 3 -10 -6 -4 -10 6 -12 4 -7 -8 4 -10 2 -17
-4 -17 -6 0 -8 -7 -5 -16 3 -8 2 -12 -3 -9 -5 3 -12 1 -16 -5 -3 -5 0 -10 7
-10 9 0 9 -3 -2 -10 -8 -5 -11 -10 -6 -10 5 0 3 -7 -4 -15 -6 -8 -9 -19 -5
-25 3 -5 2 -10 -4 -10 -6 0 -8 -6 -5 -14 3 -8 1 -17 -5 -21 -6 -3 -11 -16 -11
-29 0 -12 -5 -27 -12 -34 -9 -9 -9 -12 3 -12 11 -1 11 -3 -2 -10 -10 -6 -15
-18 -12 -34 3 -13 0 -27 -6 -30 -6 -4 -11 -12 -11 -17 0 -6 5 -7 12 -3 6 4 4
-3 -5 -15 -8 -13 -13 -30 -10 -39 4 -9 2 -13 -4 -9 -5 3 -10 0 -10 -8 0 -8 5
-15 11 -15 6 0 3 -5 -7 -11 -15 -9 -16 -13 -5 -27 11 -13 11 -14 -1 -7 -11 6
-13 4 -8 -8 3 -9 3 -18 -1 -21 -4 -2 -7 -20 -6 -40 1 -21 -3 -36 -10 -36 -6 0
-4 -5 4 -10 12 -8 12 -10 1 -10 -11 0 -11 -3 0 -17 8 -9 9 -14 3 -10 -7 4 -14
0 -18 -8 -3 -8 -1 -17 5 -21 7 -4 7 -10 0 -18 -6 -7 -9 -22 -6 -34 2 -12 -1
-22 -7 -22 -7 0 -7 -5 1 -14 9 -11 9 -15 -1 -19 -10 -4 -10 -6 0 -6 6 -1 12
-6 12 -12 0 -5 -4 -7 -10 -4 -6 3 -10 -1 -10 -10 0 -10 5 -13 13 -9 8 5 8 2
-2 -9 -7 -9 -10 -17 -6 -17 4 0 1 -8 -6 -17 -10 -11 -10 -14 -2 -9 16 9 17 -6
1 -22 -9 -9 -9 -12 1 -12 7 0 9 -5 5 -12 -11 -17 -11 -58 -1 -58 4 0 3 -10 -4
-21 -9 -17 -8 -23 2 -30 11 -7 11 -9 -1 -9 -13 0 -13 -1 0 -10 9 -6 11 -13 5
-17 -11 -9 -15 -63 -4 -63 9 0 6 -20 -4 -37 -6 -9 -3 -11 9 -6 12 4 15 3 10
-5 -8 -14 17 -55 27 -45 4 3 7 -1 7 -10 0 -9 7 -17 15 -17 8 0 15 -5 15 -12 0
-6 3 -8 7 -5 3 4 13 1 21 -6 13 -10 14 -9 7 2 -6 11 -3 13 16 8 32 -8 71 2 62
16 -4 7 0 8 13 3 10 -4 15 -4 11 0 -4 5 3 14 15 22 19 11 20 12 3 8 -19 -6
-19 -5 -3 7 10 8 15 17 11 20 -3 4 -2 7 4 7 6 0 9 9 6 20 -3 12 0 20 7 20 9 0
9 4 -1 17 -8 10 -9 14 -2 10 8 -5 11 0 10 13 -1 11 -6 20 -12 20 -5 0 -3 5 5
10 8 5 11 10 6 10 -5 0 -3 6 3 14 10 11 8 17 -6 25 -10 6 -13 11 -6 11 13 0
12 18 -1 39 -6 9 -5 12 1 8 7 -4 10 14 9 53 -1 33 1 60 5 60 3 0 4 12 1 26 -4
20 -2 25 8 19 10 -6 11 -4 4 6 -12 20 -14 38 -3 45 6 4 6 11 -1 19 -7 9 -8 15
-1 19 6 4 8 13 4 21 -3 8 0 15 7 15 10 0 10 3 0 15 -9 11 -10 15 -1 15 8 0 10
8 6 21 -6 16 -4 20 6 13 12 -6 12 -5 0 9 -7 9 -9 17 -4 17 6 0 9 11 8 25 -2
14 2 25 8 25 7 0 5 5 -3 10 -12 8 -12 10 5 11 11 0 14 3 7 6 -10 4 -10 8 0 21
7 9 8 13 2 9 -6 -3 -11 0 -11 8 0 8 5 11 10 8 6 -4 8 3 5 15 -4 13 -1 22 5 22
6 0 7 3 4 7 -4 3 -1 13 6 21 10 13 9 14 -2 7 -11 -6 -10 -2 2 16 20 28 22 43
5 33 -8 -5 -7 -1 2 10 8 10 15 27 17 38 2 12 11 27 21 35 16 12 15 13 -3 6
-18 -6 -18 -5 -6 10 7 9 10 17 5 17 -4 0 1 7 12 16 10 8 13 12 6 9 -11 -6 -12
-3 -4 11 6 11 10 22 11 27 3 26 14 57 22 57 5 0 5 7 2 17 -5 12 -3 14 7 8 10
-6 12 -2 8 18 -4 18 -1 24 9 20 7 -3 10 -10 6 -16 -3 -6 -1 -7 6 -3 6 4 8 13
4 19 -12 19 -12 37 0 37 5 0 7 3 4 6 -4 4 3 20 14 35 11 16 17 34 13 40 -5 8
-3 9 6 4 10 -6 12 -4 7 8 -3 9 -1 19 5 23 7 4 8 3 4 -4 -4 -7 -2 -12 4 -12 7
0 8 -6 1 -19 -6 -10 -7 -21 -4 -25 3 -3 -1 -14 -10 -23 -8 -10 -17 -22 -19
-28 -2 -5 -6 -9 -10 -7 -13 4 -9 -10 8 -29 15 -17 11 -45 -5 -34 -5 2 -16 -4
-25 -14 -15 -16 -15 -19 -1 -31 10 -8 15 -9 15 -1 0 6 -5 11 -11 11 -5 0 -7 5
-4 10 5 8 12 7 23 -2 12 -10 14 -10 8 0 -4 6 -3 12 2 12 6 0 13 -7 16 -16 3
-9 2 -12 -4 -9 -6 4 -17 -9 -25 -28 -8 -20 -20 -38 -27 -41 -7 -3 -1 -3 14 -1
15 2 32 6 38 10 19 12 10 -7 -12 -25 -14 -11 -25 -14 -29 -8 -4 5 -9 3 -12 -5
-6 -17 8 -17 39 0 14 8 25 8 35 1 12 -8 12 -9 -1 -5 -8 2 -21 -1 -27 -9 -10
-10 -8 -12 10 -10 13 1 29 6 37 11 13 8 13 6 1 -8 -7 -9 -17 -15 -21 -12 -5 3
-11 1 -14 -4 -3 -5 9 -7 26 -6 29 3 31 2 14 -10 -10 -8 -24 -11 -32 -8 -8 3
-14 0 -14 -6 0 -6 3 -10 8 -10 28 5 28 -5 -1 -32 -26 -26 -28 -30 -10 -25 23
7 40 -8 22 -20 -8 -5 -9 -3 -4 7 5 8 4 10 0 6 -12 -10 -15 -38 -4 -31 13 8 11
-10 -3 -25 -11 -11 -10 -12 2 -6 11 6 10 3 -3 -12 -9 -11 -14 -22 -11 -26 13
-13 6 -160 -8 -168 -10 -7 -10 -9 2 -9 13 -1 13 -2 -1 -13 -9 -7 -17 -16 -19
-22 -1 -5 -5 -16 -8 -23 -2 -7 0 -18 6 -24 7 -7 6 -20 -4 -44 -13 -30 -12 -33
2 -27 14 5 15 3 5 -15 -9 -17 -9 -22 0 -22 8 0 8 -4 -1 -15 -11 -14 -7 -19 12
-16 4 0 0 -12 -8 -27 -8 -16 -10 -28 -4 -30 6 -2 7 -9 3 -15 -4 -7 1 -6 10 2
14 11 17 11 17 0 0 -8 5 -6 12 6 6 11 19 26 27 33 9 8 11 11 5 8 -7 -3 -14 1
-17 8 -3 8 -1 17 6 20 8 3 8 5 -2 5 -11 1 -11 4 0 18 12 15 12 16 -5 10 -16
-6 -17 -5 -6 8 7 9 10 18 6 22 -3 3 1 15 10 24 15 17 15 19 0 25 -9 3 -13 10
-10 15 3 5 10 6 16 3 6 -4 6 2 -1 15 -7 11 -8 21 -2 21 5 0 12 7 15 16 4 10 2
13 -7 9 -6 -4 -3 1 7 9 11 9 14 16 8 16 -7 0 -12 5 -12 11 0 5 5 7 12 3 7 -5
9 0 6 14 -5 20 17 40 30 27 3 -3 0 -5 -6 -5 -7 0 -12 -7 -12 -16 0 -9 5 -12
12 -8 7 5 8 3 3 -6 -4 -7 -2 -16 6 -21 12 -7 11 -9 -1 -9 -13 0 -13 -2 -1 -9
8 -5 16 -17 17 -25 1 -9 -2 -13 -9 -9 -6 4 -8 0 -4 -9 3 -9 0 -24 -8 -34 -10
-15 -11 -22 -2 -33 9 -12 9 -13 0 -7 -8 4 -13 2 -13 -5 0 -7 10 -9 25 -7 14 3
25 1 25 -5 0 -25 14 6 16 36 1 17 3 36 3 40 1 5 5 6 9 3 5 -3 16 4 25 14 17
21 11 60 -13 75 -8 5 -7 11 2 23 10 12 10 14 1 8 -18 -10 -16 5 2 32 15 20 15
21 -2 16 -17 -5 -17 -5 0 9 18 15 24 32 7 22 -5 -3 -10 -1 -10 4 0 6 5 11 11
11 5 0 7 5 4 10 -3 6 -1 10 5 10 7 0 9 7 6 16 -4 11 -2 15 7 11 9 -3 14 2 14
16 1 51 3 59 17 54 9 -4 12 2 10 18 -2 21 0 23 22 15 13 -5 23 -6 23 -2 -3 18
2 32 12 32 5 0 7 -4 4 -10 -3 -5 0 -10 7 -10 9 0 9 -3 -2 -10 -13 -8 -12 -10
4 -10 20 0 20 0 0 -16 -10 -8 -13 -13 -6 -9 8 4 12 -2 12 -19 0 -14 6 -26 13
-26 8 0 9 -2 1 -8 -6 -4 -10 -22 -9 -39 2 -29 0 -31 -14 -20 -14 10 -14 10 -3
-4 20 -26 51 -30 70 -9 19 23 24 63 7 56 -6 -2 -12 2 -12 10 0 7 5 10 11 7 6
-4 5 1 -3 10 -12 15 -11 17 3 17 10 0 14 5 11 10 -4 6 -11 8 -16 5 -5 -3 -6 1
-3 10 4 8 0 23 -7 32 -8 9 -9 14 -3 10 7 -4 15 0 18 9 3 8 2 12 -4 9 -13 -8 1
28 14 37 7 5 7 8 -2 8 -8 0 -6 8 7 22 17 17 18 24 8 37 -10 14 -10 14 5 3 9
-8 21 -12 25 -9 13 8 9 -79 -5 -95 -9 -11 -9 -17 1 -28 7 -8 8 -11 1 -7 -7 4
-18 -1 -25 -11 -11 -14 -11 -15 0 -5 14 12 44 6 36 -7 -8 -13 21 -6 39 9 12
10 13 17 6 26 -8 9 -7 15 2 18 10 4 10 6 1 6 -7 1 -13 8 -13 16 0 8 6 15 13
15 8 0 7 4 -3 10 -13 8 -13 10 2 10 9 0 20 5 24 12 5 7 3 8 -5 4 -20 -13 -9
25 18 63 22 31 23 34 5 28 -19 -7 -19 -7 0 8 11 8 15 15 9 15 -6 0 -15 15 -18
33 -4 17 -11 37 -15 42 -13 18 -20 46 -10 40 6 -3 10 -2 10 4 0 6 7 7 17 4 11
-4 14 -3 9 5 -5 8 1 12 18 12 16 0 26 -6 26 -15 0 -8 5 -15 11 -15 6 0 9 -7 5
-15 -3 -8 -1 -15 4 -15 6 0 10 -4 10 -9 0 -5 5 -22 11 -38 6 -15 10 -30 11
-33 0 -3 4 -11 10 -17 6 -7 7 -13 2 -13 -5 0 -2 -5 6 -10 8 -5 10 -10 4 -10
-6 0 -11 -7 -11 -15 0 -8 4 -12 8 -10 4 3 13 -17 20 -44 7 -28 16 -48 20 -45
4 2 6 -4 5 -13 -2 -10 4 -24 13 -31 12 -10 12 -11 1 -6 -8 5 -5 -4 8 -20 12
-16 19 -32 16 -37 -3 -5 0 -9 6 -9 6 0 9 -4 6 -9 -4 -5 -1 -11 4 -13 6 -2 12
-13 13 -26 0 -12 5 -22 10 -22 5 0 3 -8 -4 -17 -10 -11 -10 -14 -1 -9 7 4 12
2 12 -4 0 -7 7 -9 16 -6 10 4 13 2 8 -6 -5 -7 -3 -8 5 -4 7 5 10 15 7 23 -5
11 -2 14 11 9 13 -4 12 -1 -5 13 -15 13 -18 21 -10 24 10 4 10 6 0 6 -7 1 -10
6 -7 11 3 6 -1 10 -10 10 -9 0 -13 5 -10 10 3 6 1 10 -5 10 -6 0 -10 8 -8 18
2 10 -2 16 -10 14 -10 -2 -10 2 -2 17 15 29 12 38 -5 15 -13 -18 -14 -18 -8 5
5 18 3 22 -7 16 -8 -5 -11 -4 -6 3 3 6 2 13 -3 16 -5 3 -7 15 -4 26 4 14 1 20
-7 18 -7 -2 -14 6 -15 17 -2 11 -6 30 -9 43 -3 13 -1 20 5 17 5 -4 7 -11 4
-16 -4 -5 -1 -9 4 -9 6 0 11 -9 11 -20 0 -11 3 -20 8 -20 4 0 12 -11 19 -25 7
-16 7 -23 1 -19 -6 4 -8 1 -6 -7 3 -8 10 -13 16 -12 6 2 14 -6 17 -17 4 -11
11 -20 17 -20 6 0 8 -9 5 -19 -3 -14 -1 -18 9 -14 8 3 14 -1 14 -10 0 -9 8
-22 18 -29 10 -7 17 -20 17 -28 0 -8 7 -22 17 -31 10 -9 15 -19 11 -23 -3 -3
-1 -6 5 -6 6 0 9 -7 5 -17 -4 -10 -2 -14 4 -10 6 4 14 0 17 -9 3 -8 2 -12 -4
-9 -6 3 -10 -1 -10 -10 0 -10 5 -13 12 -9 7 5 9 1 6 -13 -3 -11 -1 -28 5 -38
6 -12 6 -16 -1 -11 -5 3 -13 -1 -16 -10 -9 -24 -7 -31 4 -14 5 8 10 10 10 4 0
-6 -3 -14 -7 -18 -11 -11 -14 -48 -3 -41 5 3 10 1 10 -4 0 -6 -4 -11 -8 -11
-11 0 -9 -31 3 -49 5 -10 4 -12 -3 -7 -13 8 -12 -20 1 -41 4 -6 1 -14 -5 -16
-7 -3 -3 -6 8 -6 28 -1 45 20 39 47 -2 12 1 25 7 28 7 5 8 2 3 -6 -5 -9 -4
-11 4 -6 9 6 9 11 1 21 -7 8 -7 15 -1 19 5 4 8 17 5 30 -3 16 2 26 12 30 13 5
14 9 4 21 -6 8 -9 23 -5 34 3 11 1 23 -6 27 -8 5 -9 3 -4 -6 5 -9 4 -11 -4 -6
-6 4 -9 12 -6 17 8 12 35 11 35 -2 0 -5 6 -7 13 -3 8 5 8 2 -2 -9 -11 -15 -11
-17 1 -17 8 0 23 -10 34 -22 10 -12 13 -18 7 -14 -9 5 -12 0 -11 -18 1 -13 5
-23 9 -20 4 2 10 -2 12 -8 4 -10 6 -10 6 -1 1 7 8 10 19 6 9 -3 13 -2 9 2 -4
5 2 14 14 20 19 11 19 13 5 27 -8 9 -12 18 -9 22 4 3 1 6 -6 6 -7 0 -9 5 -6
10 3 6 -3 10 -14 10 -12 0 -21 5 -21 11 0 5 5 7 10 4 6 -3 10 1 10 10 0 10 -5
13 -12 9 -7 -4 -8 -3 -4 5 6 9 11 9 21 1 10 -8 14 -7 18 2 3 7 6 4 6 -7 1 -13
4 -16 9 -8 4 6 27 13 52 15 29 3 44 9 42 17 -1 7 2 10 7 7 5 -4 13 -1 16 5 4
5 14 8 22 5 8 -3 11 -1 8 4 -3 5 3 18 15 30 11 11 20 24 20 28 0 5 7 17 16 28
8 10 12 13 8 5 -4 -9 -3 -12 4 -8 5 4 8 16 5 27 -3 12 0 20 6 20 7 0 9 5 6 10
-3 6 -1 10 5 10 6 0 8 5 5 10 -3 6 -2 10 3 10 5 0 8 11 7 25 -2 14 0 25 5 25
5 0 7 11 5 25 -1 14 1 25 5 25 4 0 10 9 13 20 3 11 1 18 -3 15 -4 -3 -3 6 3
19 7 13 16 22 22 18 5 -3 4 1 -3 10 -11 14 -10 18 9 28 17 10 19 14 8 21 -11
7 -10 9 4 9 11 0 21 9 24 20 3 11 9 17 14 14 5 -3 9 2 9 10 0 8 9 20 20 26 11
6 18 15 15 20 -3 5 4 11 14 15 11 3 23 15 26 26 5 14 12 18 23 14 9 -3 13 -3
9 1 -4 4 1 13 11 21 11 10 12 12 2 8 -10 -4 -9 -2 2 8 10 8 14 17 10 21 -4 4
-1 6 7 4 8 -2 23 13 34 34 11 21 24 35 28 32 5 -3 6 3 2 12 -5 13 -3 15 8 9 8
-4 11 -5 7 0 -4 4 -2 15 5 23 10 13 9 14 -3 7 -11 -6 -10 -3 2 12 10 11 19 32
20 46 1 15 5 27 9 27 3 0 6 25 5 55 -1 30 4 57 9 59 6 3 5 5 -1 5 -6 1 -9 12
-6 26 2 14 -1 31 -7 39 -9 11 -9 15 1 18 10 4 8 9 -5 22 -19 19 -23 31 -7 21
6 -3 10 -1 10 4 0 6 -5 11 -11 11 -5 0 -8 4 -4 9 3 5 1 12 -5 16 -5 3 -15 15
-21 27 -8 15 -8 19 0 14 6 -4 11 -2 11 3 0 6 -7 11 -16 11 -8 0 -12 5 -9 10 3
6 1 10 -6 10 -7 0 -9 3 -6 7 4 3 -5 16 -18 29 -14 13 -25 26 -25 29 1 22 -1
27 -6 22 -8 -7 -44 31 -44 46 0 5 -7 7 -15 3 -8 -3 -14 -2 -13 2 3 9 -50 62
-63 62 -6 0 -7 5 -4 10 3 6 1 10 -6 10 -6 0 -20 9 -30 21 -9 11 -21 20 -26 21
-4 0 -7 3 -6 8 1 4 -9 6 -22 4 -13 -1 -23 2 -22 8 1 6 -9 12 -23 14 -13 3 -27
8 -30 13 -3 4 -23 14 -45 22 -22 8 -46 20 -53 27 -8 7 -18 10 -23 7 -5 -4 -9
-1 -9 5 0 6 -4 9 -9 5 -5 -3 -12 -1 -16 5 -4 6 -11 8 -16 4 -5 -3 -16 0 -24 6
-8 6 -18 9 -23 6 -6 -3 -15 1 -22 9 -7 8 -16 12 -21 9 -5 -3 -9 0 -9 6 0 6 -4
8 -10 5 -5 -3 -10 -1 -10 5 0 7 -7 10 -15 7 -8 -4 -17 -1 -21 5 -5 7 -2 8 6 3
8 -5 11 -4 6 3 -4 6 -13 9 -21 6 -7 -3 -18 3 -24 15 -15 27 -14 34 4 27 8 -3
14 0 12 7 -1 6 8 13 21 15 13 2 26 10 29 18 3 8 9 11 14 8 5 -3 9 1 9 8 0 11
2 10 9 0 6 -11 10 -10 15 3 3 9 13 15 20 12 8 -3 17 1 20 10 5 12 9 13 20 4
11 -9 15 -9 18 1 3 7 16 13 29 13 13 1 23 6 22 11 -1 6 11 9 28 6 16 -2 29 0
29 6 0 6 9 9 20 7 11 -2 18 0 15 6 -6 8 16 14 39 10 4 -1 14 3 22 10 7 6 18 8
24 4 5 -3 10 -1 10 4 0 6 5 11 11 11 5 0 7 -5 3 -11 -3 -6 5 -4 18 5 14 9 28
13 31 9 4 -3 7 0 7 7 0 7 3 10 7 7 3 -4 13 -2 20 5 11 9 16 9 22 -1 10 -16 21
-14 43 5 11 11 18 12 23 4 5 -8 13 -7 30 4 25 16 37 12 28 -10 -3 -8 0 -14 7
-14 7 0 10 -7 7 -15 -4 -8 -1 -17 5 -21 7 -5 8 -2 3 6 -6 9 -4 11 4 5 9 -5 10
-10 2 -18 -7 -7 -2 -16 15 -29 13 -11 21 -24 18 -30 -4 -6 -1 -14 5 -18 7 -4
13 -16 14 -28 0 -11 5 -18 9 -16 4 3 8 -2 8 -10 0 -9 4 -16 8 -16 4 0 8 -10 9
-21 1 -12 10 -30 19 -40 9 -11 14 -19 10 -19 -4 0 0 -7 8 -16 9 -8 14 -20 10
-25 -3 -5 0 -8 8 -7 7 2 12 -5 12 -14 -1 -10 2 -16 6 -13 10 6 34 -41 26 -54
-5 -7 -1 -9 8 -5 11 4 16 0 16 -15 0 -12 5 -21 10 -21 6 0 10 -9 10 -21 0 -12
4 -18 11 -13 7 4 10 1 7 -7 -3 -8 2 -20 11 -27 13 -11 13 -12 1 -6 -12 6 -11
3 2 -12 9 -10 18 -26 20 -34 2 -8 11 -21 21 -28 9 -7 15 -17 12 -22 -7 -11 15
-60 27 -60 4 0 8 -7 8 -15 0 -8 5 -15 10 -15 6 0 10 -7 10 -15 0 -9 9 -19 21
-23 11 -5 20 -11 20 -15 -3 -21 0 -27 14 -27 8 0 14 -3 14 -7 -4 -22 3 -33 18
-33 9 0 14 -3 10 -6 -7 -8 17 -34 32 -34 6 0 11 -5 11 -10 0 -13 47 -32 78
-32 12 0 22 -5 22 -10 0 -7 5 -6 13 1 10 8 17 7 27 -2 10 -9 11 -9 6 1 -5 8 0
12 14 12 12 0 19 4 15 9 -3 6 4 8 15 6 11 -2 18 0 15 6 -4 5 1 9 10 9 10 0 13
5 9 12 -4 7 -3 8 5 4 6 -4 9 -12 6 -17 -4 -5 1 -9 11 -9 13 0 14 -3 4 -15 -9
-10 -9 -15 -1 -15 6 0 11 -5 11 -11 0 -5 -6 -7 -12 -3 -7 4 -3 -3 10 -15 24
-23 31 -41 9 -23 -11 9 -13 4 -10 -28 2 -27 -1 -40 -10 -40 -8 0 -7 -4 3 -10
13 -8 11 -11 -7 -16 -13 -4 -20 -10 -17 -15 3 -5 11 -7 17 -3 7 3 3 -2 -7 -10
-15 -12 -16 -16 -5 -16 12 0 12 -2 -1 -10 -12 -8 -12 -10 -1 -10 10 0 11 -3 2
-14 -9 -10 -9 -16 -1 -21 8 -5 8 -11 -1 -21 -9 -11 -8 -14 2 -14 11 0 11 -3
-1 -11 -12 -8 -12 -12 -2 -16 10 -4 10 -8 0 -21 -10 -12 -10 -14 0 -8 7 4 12
2 12 -8 0 -8 -4 -17 -9 -21 -6 -3 -9 -14 -8 -25 1 -18 17 -26 42 -20 6 1 16 3
22 3 9 0 10 4 2 13 -6 7 -8 18 -4 24 11 17 14 80 4 86 -5 3 -5 13 1 24 5 10
10 27 10 37 0 15 -2 16 -10 3 -6 -10 -10 -11 -10 -2 0 6 9 21 19 31 11 11 17
22 14 25 -3 2 -1 10 3 18 4 7 8 26 7 44 0 19 5 31 13 31 7 0 11 -4 8 -8 -2 -4
-1 -9 3 -12 5 -2 1 -2 -7 0 -9 3 -6 -4 8 -17 24 -23 30 -38 9 -24 -7 5 -5 2 5
-8 13 -12 15 -18 6 -21 -10 -4 -9 -6 1 -6 10 -1 11 -4 2 -14 -6 -8 -12 -24
-15 -38 -2 -13 -9 -23 -15 -22 -5 2 -8 -4 -5 -12 4 -8 10 -12 15 -9 5 3 9 -2
9 -10 0 -18 16 -21 25 -6 4 6 10 8 14 6 4 -3 7 8 6 25 -1 16 2 32 6 35 4 2 6
13 4 24 -2 12 0 18 6 15 5 -4 6 -12 2 -18 -5 -9 -3 -9 8 -1 8 7 22 8 34 3 11
-4 16 -8 10 -8 -5 -1 -3 -6 5 -12 12 -8 10 -10 -10 -5 -23 5 -24 4 -6 -9 19
-14 13 -41 -6 -29 -7 4 -8 2 -4 -5 4 -6 11 -9 15 -7 4 3 8 -1 8 -9 0 -8 -3
-12 -7 -10 -4 2 -7 -2 -7 -10 0 -8 4 -12 8 -9 4 2 10 -2 12 -8 4 -10 8 -9 16
2 6 8 11 11 11 5 1 -5 5 0 11 13 6 15 13 21 21 16 8 -5 6 2 -3 17 -13 19 -14
30 -7 43 6 11 6 16 1 13 -5 -3 -10 0 -10 8 0 8 5 11 10 8 6 -4 8 5 5 20 -3 15
0 28 6 31 6 2 3 5 -6 5 -9 1 -20 5 -23 11 -3 6 1 7 9 4 12 -4 16 0 16 16 0 14
4 19 13 14 8 -5 7 -2 -2 10 -11 13 -11 20 -3 28 16 16 15 31 0 23 -7 -4 -5 0
4 8 10 8 15 17 12 20 -4 3 2 5 13 4 11 0 20 -7 20 -14 0 -6 -4 -10 -8 -7 -4 2
-11 0 -14 -6 -4 -6 -3 -10 2 -9 23 4 40 -3 40 -16 0 -8 -4 -12 -9 -9 -15 10
-8 -9 10 -23 9 -8 12 -12 6 -9 -14 7 -27 -21 -17 -37 4 -7 0 -8 -11 -4 -12 5
-15 3 -9 -6 4 -6 8 -14 9 -17 0 -3 4 -14 9 -24 8 -18 9 -18 17 4 7 19 10 21
25 9 14 -13 16 -11 11 14 -4 20 -1 27 11 28 14 0 14 1 1 7 -8 4 -16 13 -18 21
-2 11 0 12 11 2 12 -9 16 -8 21 5 3 9 3 21 -1 27 -4 8 -1 7 9 -1 8 -7 22 -10
30 -7 19 7 18 -26 -1 -49 -12 -14 -11 -16 5 -10 18 7 18 7 2 -13 -10 -11 -18
-24 -18 -29 0 -5 5 -2 10 6 9 13 11 13 20 0 9 -13 10 -13 10 0 0 11 2 12 8 3
6 -10 12 -10 28 2 16 13 17 16 4 25 -8 5 -10 10 -4 10 6 0 11 7 11 15 0 8 -5
15 -11 15 -6 0 -4 5 4 10 8 5 10 10 4 10 -7 0 -14 7 -17 14 -4 11 -1 13 11 9
15 -6 16 -5 2 12 -9 11 -10 16 -2 11 7 -4 12 -1 12 8 0 9 -6 16 -12 16 -10 0
-10 2 -1 8 7 4 13 22 15 40 l2 33 18 -23 c20 -27 24 -98 6 -117 -11 -11 -10
-12 2 -6 13 8 13 7 1 -8 -11 -14 -11 -17 0 -17 9 0 10 -3 4 -8 -17 -12 -16
-32 2 -32 15 0 14 -2 -3 -16 -10 -8 -13 -13 -6 -9 14 7 16 -4 2 -25 -5 -8 -5
-19 -1 -25 9 -13 8 -26 -3 -44 -6 -9 -5 -12 1 -8 6 4 13 0 17 -8 3 -8 0 -14
-6 -12 -13 3 -20 -31 -7 -39 5 -3 6 -10 3 -16 -4 -7 -2 -8 5 -4 6 4 9 12 6 17
-4 5 -1 9 4 9 6 0 11 -4 11 -9 0 -5 7 -11 15 -15 8 -3 14 -2 14 2 -3 18 2 32
12 32 5 0 7 -5 3 -12 -4 -7 -3 -8 4 -4 14 8 10 42 -5 57 -6 6 -9 18 -6 25 3 8
-1 22 -8 31 -12 14 -12 16 0 8 11 -6 13 -1 9 26 -5 30 -3 35 14 36 16 2 17 -1
7 -13 -10 -12 -9 -13 3 -9 9 4 18 -1 22 -10 3 -9 2 -14 -3 -11 -5 3 -11 -1
-15 -9 -3 -8 0 -17 6 -21 6 -4 8 -3 5 3 -7 11 33 27 42 18 2 -3 -1 -5 -7 -5
-7 0 -12 -9 -12 -21 0 -11 4 -18 9 -15 4 3 8 -15 7 -39 0 -27 -5 -44 -11 -41
-11 4 -12 -55 0 -73 3 -6 1 -11 -6 -11 -8 0 -8 -4 -1 -13 7 -8 7 -18 2 -27 -5
-8 -5 -21 1 -31 6 -12 4 -22 -6 -33 -11 -11 -12 -16 -2 -20 9 -3 7 -8 -5 -16
-10 -6 -15 -19 -12 -34 2 -14 -1 -26 -9 -29 -10 -4 -12 -18 -7 -55 3 -28 2
-49 -2 -46 -5 3 -6 -6 -2 -20 13 -52 11 -86 -5 -87 -11 0 -12 -2 -3 -6 6 -2
10 -9 6 -14 -3 -5 1 -9 10 -9 8 0 17 -6 19 -12 4 -10 6 -10 6 0 1 6 9 12 19
12 14 0 15 2 2 10 -13 9 -13 10 0 10 11 0 15 11 15 40 0 22 -3 40 -7 40 -5 0
-8 5 -8 11 0 5 5 7 12 3 7 -5 8 -3 3 5 -4 7 -8 26 -9 42 -2 28 -2 28 18 11 19
-16 20 -16 7 0 -7 9 -10 22 -6 29 4 6 1 15 -6 20 -11 7 -11 9 2 9 11 0 15 8
13 26 -2 20 1 24 13 20 13 -5 14 -4 3 9 -10 12 -10 15 0 15 10 0 10 3 1 14 -9
11 -9 16 0 22 7 4 10 3 7 -2 -8 -12 18 -35 28 -26 5 4 2 -1 -5 -10 -10 -14
-11 -18 -1 -18 9 0 9 -4 -1 -17 -8 -9 -9 -14 -3 -10 7 4 18 -1 25 -10 10 -12
10 -14 2 -9 -8 4 -13 1 -13 -9 0 -10 -5 -13 -12 -9 -10 6 -10 5 -1 -7 8 -9 9
-20 3 -29 -6 -8 -10 -26 -10 -40 0 -18 3 -21 9 -11 7 11 9 11 14 0 5 -11 9
-10 20 3 8 10 16 15 19 13 7 -8 1 42 -7 54 -3 6 0 9 8 5 8 -3 20 3 28 13 13
17 13 17 -6 3 -19 -14 -19 -14 -6 3 8 9 16 15 19 12 3 -3 10 -1 16 4 8 7 10
-2 8 -30 -3 -25 -8 -37 -16 -32 -6 3 -6 1 2 -8 6 -7 12 -22 12 -34 0 -12 6
-27 13 -34 10 -11 9 -12 -1 -7 -10 6 -12 -2 -11 -33 3 -36 6 -40 26 -39 15 2
22 7 18 16 -2 7 -1 11 4 8 5 -3 15 2 22 11 8 9 9 14 3 10 -7 -4 -15 0 -18 9
-4 10 -2 13 6 8 8 -5 9 -2 5 9 -4 10 -10 24 -14 34 -5 12 -3 14 8 8 12 -8 12
-6 0 8 -9 11 -10 17 -2 17 6 0 11 5 11 11 0 5 -4 7 -10 4 -6 -3 -7 1 -4 9 3 9
11 13 16 10 6 -4 5 3 -1 15 -7 11 -8 21 -3 21 5 0 8 13 7 30 -1 16 1 28 4 25
4 -2 13 6 21 18 12 21 12 21 -5 7 -17 -14 -17 -14 -2 16 9 17 13 34 10 38 -4
3 -2 6 4 6 6 0 13 -7 17 -15 3 -8 1 -15 -5 -15 -6 0 -7 -5 -4 -10 4 -6 11 -7
17 -4 6 4 6 -2 -1 -15 -8 -14 -8 -21 -1 -21 13 0 13 -36 -1 -62 -8 -15 -8 -19
0 -14 6 4 11 2 11 -3 0 -6 -4 -11 -10 -11 -5 0 -10 -9 -10 -21 0 -15 5 -19 16
-15 8 3 12 2 9 -4 -11 -18 7 -10 26 11 10 11 15 28 12 36 -5 12 -3 14 8 8 12
-7 12 -6 -1 11 -8 10 -10 16 -6 12 5 -4 15 0 23 10 10 13 13 14 11 2 -2 -9 3
-14 12 -12 10 3 9 -3 -5 -19 -19 -21 -19 -22 -1 -15 16 5 17 4 6 -9 -7 -8 -8
-15 -3 -15 5 0 10 -7 10 -15 0 -9 -4 -11 -11 -6 -7 6 -11 1 -11 -15 0 -13 4
-24 8 -24 5 0 6 -4 3 -8 -2 -4 6 -8 19 -8 13 0 21 4 19 8 -3 4 1 8 8 8 15 0
19 56 5 77 -4 6 -2 15 4 19 8 5 9 3 4 -6 -6 -9 -4 -11 4 -6 9 6 8 12 -4 26
-12 14 -13 20 -4 26 8 5 10 3 4 -7 -5 -8 -4 -11 1 -6 12 11 12 30 0 39 -6 4
-3 15 9 28 16 18 17 20 2 14 -13 -5 -16 -2 -11 10 3 9 11 13 17 9 6 -3 7 -1 3
6 -4 6 -2 19 6 28 10 13 10 17 0 20 -6 3 -9 9 -6 15 3 5 13 0 21 -11 8 -12 19
-18 26 -14 7 4 5 -2 -3 -12 -9 -11 -10 -16 -2 -11 9 5 12 -4 10 -39 -1 -34 -5
-45 -15 -41 -7 3 -3 -8 9 -25 19 -26 24 -28 34 -15 6 9 13 13 16 10 3 -2 8 2
11 11 4 10 1 15 -10 15 -14 0 -14 2 3 15 11 8 14 14 6 15 -10 0 -10 3 0 14 7
8 16 12 21 9 4 -2 7 7 7 21 0 14 -5 26 -11 26 -5 0 -8 4 -5 9 3 5 -2 8 -12 7
-9 0 -16 5 -14 12 1 6 -5 12 -14 12 -10 0 -14 5 -10 16 3 8 2 12 -4 9 -6 -3
-10 -1 -10 5 0 6 -4 9 -9 6 -5 -3 -11 4 -14 16 -7 24 10 41 31 33 7 -3 10 0 7
5 -3 6 1 10 9 10 9 0 16 4 16 9 0 5 11 8 25 7 13 -2 23 2 22 8 -1 6 6 10 17 8
11 -2 15 1 11 7 -3 6 1 11 9 11 9 0 16 5 16 11 0 5 5 7 10 4 6 -3 10 -1 10 6
0 7 3 10 6 6 3 -3 17 5 31 19 28 28 42 32 22 7 -13 -16 -12 -17 4 -4 10 8 16
20 13 27 -3 8 0 11 10 7 7 -3 14 0 14 7 0 6 5 8 10 5 6 -3 10 2 10 11 0 10 3
14 7 11 3 -4 12 2 20 13 8 11 20 20 28 20 8 0 17 5 21 12 5 7 3 8 -6 3 -8 -5
-11 -4 -6 3 3 6 15 10 26 9 10 -1 16 -5 14 -9 -3 -4 0 -8 5 -8 6 0 11 -7 11
-15 0 -8 5 -15 11 -15 5 0 7 -4 4 -10 -3 -5 2 -10 12 -11 11 0 13 -3 5 -6 -9
-3 -7 -10 9 -23 11 -11 18 -23 15 -29 -4 -5 -1 -13 5 -17 8 -4 9 -3 5 4 -4 7
-5 12 -2 12 3 0 10 -10 17 -21 9 -17 8 -20 -3 -14 -7 3 -4 -2 8 -12 11 -10 19
-23 17 -29 -2 -5 5 -19 16 -31 11 -11 17 -24 14 -27 -4 -3 -1 -6 6 -6 7 0 9
-4 6 -10 -3 -5 -1 -10 4 -10 6 0 11 -7 11 -15 0 -8 4 -15 10 -15 5 0 7 -7 4
-15 -4 -8 -1 -15 6 -15 6 0 8 -4 5 -10 -3 -5 1 -10 10 -10 9 0 13 -5 10 -10
-4 -6 -11 -7 -17 -4 -7 4 -8 2 -4 -5 4 -6 11 -9 15 -7 4 3 14 -10 23 -29 8
-19 11 -32 7 -29 -5 3 -9 3 -9 -1 0 -3 10 -10 23 -15 19 -8 20 -9 3 -9 -19 -1
-19 -1 -1 -14 10 -8 15 -19 11 -25 -4 -7 -2 -12 3 -12 6 0 11 -3 10 -7 -2 -17
14 -53 23 -53 6 0 6 -5 -1 -14 -9 -10 -8 -15 2 -19 9 -3 13 -16 12 -31 -2 -16
1 -24 7 -20 7 5 9 -2 6 -19 -3 -15 -1 -25 5 -24 5 1 12 -14 14 -33 3 -19 10
-38 16 -42 8 -5 7 -8 -3 -8 -9 0 -11 -3 -5 -8 13 -9 18 -29 19 -74 1 -20 4
-34 9 -31 7 4 11 -12 8 -36 -2 -8 2 -10 11 -5 10 6 11 5 1 -7 -10 -12 -10 -18
0 -29 9 -10 9 -11 0 -6 -8 5 -8 -2 2 -21 10 -19 11 -29 4 -34 -8 -4 -8 -8 -1
-13 6 -4 9 -15 7 -26 -2 -11 2 -20 8 -20 7 0 6 -4 -3 -10 -10 -6 -11 -10 -2
-10 6 0 12 -9 12 -21 0 -13 -4 -18 -12 -13 -10 6 -10 4 0 -8 7 -9 12 -31 11
-49 -2 -41 3 -61 16 -71 6 -4 1 -8 -10 -9 -19 0 -19 -1 -1 -8 17 -7 17 -8 2
-23 -11 -11 -12 -18 -4 -20 6 -2 12 -14 13 -26 1 -11 -1 -19 -5 -17 -11 7 -6
-89 5 -97 6 -5 4 -8 -5 -8 -13 0 -13 -1 0 -10 8 -5 10 -10 5 -10 -6 0 -11 -9
-12 -20 -1 -13 2 -18 10 -13 7 3 4 -3 -6 -14 -9 -11 -14 -22 -11 -25 9 -9 12
-58 4 -53 -5 3 -11 -2 -14 -11 -3 -8 -2 -12 4 -9 6 3 10 -1 10 -9 0 -8 -5 -18
-11 -22 -8 -5 -8 -9 1 -14 13 -8 -26 -36 -50 -35 -8 0 -18 -4 -22 -10 -5 -6
-11 -5 -18 5 -7 11 -10 11 -10 2 0 -7 -4 -11 -9 -7 -5 3 -12 1 -16 -4 -3 -6
-21 -9 -40 -7 -19 1 -32 -1 -29 -5 7 -12 -23 -18 -34 -7 -6 6 -12 6 -16 -1 -4
-6 -17 -11 -30 -11 -12 0 -28 -6 -35 -12 -11 -11 -12 -10 -6 0 6 11 3 12 -14
2 -12 -6 -31 -8 -43 -4 -13 4 -18 2 -14 -4 3 -5 -1 -12 -9 -16 -8 -3 -17 0
-21 6 -5 7 -12 5 -21 -7 -7 -11 -13 -15 -13 -11 0 5 -8 2 -17 -5 -15 -12 -16
-12 -8 1 7 12 6 13 -7 3 -8 -7 -18 -10 -21 -6 -4 3 -7 1 -7 -5 0 -6 -6 -9 -14
-6 -8 3 -17 1 -20 -4 -3 -5 -17 -8 -31 -7 -14 2 -25 -1 -25 -7 0 -5 -8 -8 -17
-7 -10 1 -31 -4 -48 -11 -16 -8 -34 -14 -40 -14 -5 -1 -16 -7 -23 -14 -8 -7
-18 -10 -23 -7 -5 4 -9 1 -9 -6 0 -7 -3 -10 -6 -6 -4 3 -15 -4 -25 -16 -10
-12 -18 -18 -19 -13 0 6 -7 1 -16 -10 -8 -10 -13 -12 -9 -4 4 10 2 9 -8 -2 -8
-10 -18 -18 -23 -18 -5 0 -14 -10 -19 -22 -6 -13 -16 -22 -23 -21 -7 2 -12 -2
-12 -8 0 -5 -5 -7 -10 -4 -6 4 -9 1 -8 -7 2 -7 -3 -12 -11 -10 -12 3 -12 1 0
-14 8 -10 9 -15 2 -11 -7 5 -17 -1 -23 -14 -7 -11 -14 -18 -17 -15 -7 6 -38
-33 -38 -47 0 -5 -11 -15 -25 -24 -15 -8 -17 -12 -6 -8 16 5 17 3 6 -10 -7 -8
-19 -15 -26 -15 -8 0 -13 -3 -12 -7 3 -9 -27 -54 -33 -50 -2 1 -3 0 -2 -2 5
-9 -19 -41 -27 -36 -4 3 -13 -9 -19 -25 -6 -18 -17 -30 -28 -30 -15 0 -16 -2
-3 -10 13 -9 7 -14 -12 -11 -5 0 -8 -6 -8 -14 0 -8 -5 -15 -11 -15 -6 0 -9 -7
-5 -15 3 -8 0 -14 -6 -12 -5 1 -19 -14 -30 -33 -11 -19 -24 -36 -29 -38 -5 -2
-9 -10 -9 -18 0 -8 -7 -17 -16 -21 -8 -3 -20 -17 -25 -30 -5 -15 -14 -21 -21
-17 -7 4 -8 3 -4 -5 8 -13 -18 -44 -28 -33 -4 3 -4 -2 0 -12 5 -14 4 -17 -4
-12 -7 4 -12 2 -12 -4 0 -6 -5 -8 -10 -5 -6 4 -9 1 -8 -7 2 -7 -3 -12 -10 -10
-8 1 -11 -2 -8 -6 6 -10 -42 -52 -58 -51 -5 1 -13 -6 -18 -15 -5 -9 -16 -16
-23 -16 -8 0 -15 -6 -15 -12 0 -9 -4 -8 -10 2 -8 13 -10 13 -10 -2 0 -11 -7
-15 -25 -14 -13 2 -22 -1 -19 -5 5 -8 -17 -14 -38 -10 -5 0 -8 -4 -8 -10 0 -5
-4 -7 -10 -4 -5 3 -10 0 -10 -7 0 -8 -3 -9 -8 -3 -9 13 -35 19 -28 6 3 -5 -3
-11 -14 -14 -12 -3 -18 -1 -14 5 4 6 -3 5 -15 -1 -12 -7 -26 -9 -31 -6 -6 3
-10 0 -10 -7 0 -9 -3 -9 -10 2 -5 8 -10 10 -10 4 0 -7 -13 -10 -30 -9 -17 1
-33 -1 -36 -6 -3 -5 -14 -4 -25 1 -10 6 -19 8 -19 4 0 -3 -8 0 -17 7 -11 10
-14 10 -9 1 4 -6 2 -12 -3 -12 -6 0 -11 6 -11 13 0 8 -4 7 -10 -3 -6 -9 -10
-11 -10 -3 0 7 -7 10 -17 6 -10 -4 -14 -2 -10 4 4 6 -4 10 -20 10 -15 1 -29 6
-31 12 -3 9 -8 8 -20 -1 -9 -7 -13 -8 -9 -2 8 14 -10 31 -38 36 -11 1 -26 12
-33 23 l-13 20 5 -20 c6 -19 5 -19 -8 -2 -7 9 -18 17 -25 17 -6 0 -11 4 -11
10 0 5 -4 9 -9 7 -5 -1 -18 8 -29 21 -11 13 -24 24 -29 25 -4 1 -7 6 -5 11 2
5 -5 3 -14 -5 -12 -9 -15 -9 -10 -2 4 8 2 13 -4 13 -6 0 -9 4 -6 8 2 4 -10 8
-27 8 -25 -1 -32 3 -30 18 1 13 -2 15 -9 8 -8 -8 -17 -8 -31 -1 -15 8 -18 8
-12 -1 5 -8 2 -10 -11 -6 -11 3 -26 1 -34 -4 -8 -5 -11 -10 -7 -10 4 0 2 -6
-5 -14 -7 -8 -16 -12 -20 -9 -4 2 -5 -3 -2 -11 4 -10 1 -16 -7 -16 -7 0 -10
-3 -6 -6 3 -4 -1 -13 -9 -21 -8 -8 -12 -19 -9 -24 4 -5 1 -9 -5 -9 -6 0 -9 -3
-7 -7 3 -5 -5 -17 -16 -28 -11 -11 -16 -13 -12 -5 5 9 5 12 -1 7 -5 -5 -9 -17
-9 -27 0 -11 -9 -26 -20 -35 -11 -9 -13 -13 -5 -9 13 7 13 6 0 -11 -8 -11 -23
-29 -33 -40 -10 -10 -15 -25 -12 -33 2 -7 1 -11 -3 -9 -4 3 -16 -7 -26 -21
-12 -16 -14 -23 -5 -18 8 4 6 1 -5 -8 -10 -8 -15 -20 -10 -27 4 -7 3 -10 -2
-7 -5 3 -15 0 -22 -8 -8 -9 -9 -14 -2 -14 7 0 6 -5 -2 -14 -7 -8 -16 -12 -20
-9 -4 2 -5 -3 -2 -11 3 -9 1 -16 -6 -16 -6 0 -8 -5 -5 -10 3 -6 -1 -13 -9 -16
-9 -3 -13 -11 -9 -17 3 -5 -2 -16 -11 -23 -10 -7 -17 -15 -17 -18 3 -20 -1
-26 -16 -27 -11 0 -13 -3 -6 -6 10 -3 9 -8 -2 -20 -8 -8 -12 -20 -8 -26 4 -7
0 -8 -12 -3 -15 5 -16 4 -5 -9 11 -13 11 -16 -1 -13 -8 2 -13 -3 -11 -10 1 -7
-5 -15 -13 -18 -12 -5 -13 -9 -4 -20 10 -12 8 -13 -6 -8 -12 5 -16 4 -12 -3 4
-6 2 -13 -3 -15 -6 -2 -12 -13 -13 -25 0 -12 -4 -20 -8 -17 -4 2 -10 -5 -14
-16 -3 -11 -11 -20 -16 -20 -6 0 -8 -4 -4 -9 3 -5 0 -13 -6 -16 -5 -4 -8 -13
-5 -21 3 -8 2 -13 -2 -11 -4 1 -8 -2 -9 -7 0 -5 -8 -13 -17 -18 -9 -5 -16 -16
-16 -23 0 -8 -5 -15 -12 -15 -6 0 -8 -3 -5 -7 4 -3 0 -15 -10 -25 -9 -10 -13
-18 -9 -18 7 0 -7 -19 -38 -50 -10 -10 -15 -23 -12 -29 4 -5 -1 -14 -10 -19
-9 -5 -17 -13 -17 -18 -1 -5 -6 -8 -10 -6 -5 1 -6 -2 -2 -8 4 -6 1 -17 -5 -25
-7 -8 -9 -15 -4 -15 5 0 2 -5 -6 -10 -11 -7 -11 -10 -2 -10 7 0 10 -5 7 -10
-4 -6 -1 -18 7 -27 11 -14 11 -16 -2 -9 -8 4 -7 1 3 -7 14 -11 15 -16 5 -20
-10 -4 -10 -6 1 -6 11 -1 11 -4 1 -16 -11 -13 -10 -14 3 -9 12 4 15 0 14 -15
-1 -12 -6 -20 -12 -17 -7 2 -12 -2 -12 -10 0 -7 4 -11 8 -9 4 3 10 -2 13 -11
3 -8 2 -12 -4 -9 -6 3 -10 -3 -10 -14 0 -10 -6 -22 -12 -24 -10 -4 -10 -6 0
-6 10 -1 10 -4 0 -15 -7 -8 -16 -12 -20 -9 -5 2 -8 -1 -8 -6 0 -6 6 -11 13
-11 9 0 8 -3 -2 -9 -11 -7 -11 -9 0 -13 8 -3 10 -11 4 -24 -11 -26 -13 -54 -4
-54 9 0 7 -20 -4 -37 -4 -6 -3 -14 3 -18 5 -3 9 -17 8 -30 -1 -13 -6 -21 -10
-19 -4 3 -8 0 -8 -5 0 -6 7 -11 16 -11 8 0 13 -4 10 -8 -2 -4 5 -9 17 -9 17
-2 19 0 7 7 -13 8 -13 10 2 10 23 0 41 55 22 71 -10 8 -11 15 -4 24 6 8 5 16
-3 25 -7 8 -7 10 -1 7 7 -4 12 3 12 18 -1 15 -5 22 -12 19 -6 -3 -2 2 8 10 15
12 16 16 5 16 -12 0 -12 2 0 9 7 5 11 14 7 20 -4 6 -1 21 6 33 7 13 11 27 10
32 -2 4 2 14 8 20 5 7 8 15 5 18 -3 2 1 5 8 5 7 0 14 -13 15 -30 1 -16 9 -36
17 -44 17 -16 20 -27 6 -19 -5 3 -12 -1 -15 -10 -4 -10 -2 -13 7 -8 9 5 9 4 0
-7 -16 -16 -17 -33 -1 -23 7 4 8 3 4 -4 -4 -7 -15 -12 -24 -12 -13 0 -14 -2
-3 -9 11 -7 11 -9 0 -14 -11 -4 -11 -6 -1 -6 7 -1 11 -5 8 -9 -7 -12 41 -9 51
2 5 5 1 6 -7 1 -8 -4 -4 2 8 15 19 18 21 24 10 31 -7 5 -8 9 -3 9 6 0 18 12
28 26 16 21 17 27 5 41 -9 12 -9 15 0 9 6 -4 12 -2 12 3 0 6 -10 11 -22 12
-22 0 -22 1 -3 9 11 5 14 9 8 9 -7 1 -13 5 -13 9 0 10 19 9 69 -2 25 -6 30
-11 20 -17 -12 -7 -11 -9 1 -10 8 -1 19 -1 25 1 5 1 2 -7 -8 -18 -20 -22 -23
-37 -4 -26 8 6 8 3 -1 -9 -8 -9 -11 -21 -7 -27 3 -5 -2 -10 -12 -10 -15 0 -16
-2 -3 -10 12 -8 12 -10 1 -10 -11 0 -11 -3 -1 -15 10 -12 8 -14 -9 -10 -23 4
-24 -13 -2 -31 12 -9 11 -12 -4 -18 -17 -6 -17 -8 1 -28 11 -12 13 -18 5 -13
-11 6 -13 4 -8 -8 4 -10 1 -17 -6 -18 -7 0 -3 -4 8 -9 11 -5 15 -9 8 -9 -14
-1 -6 -32 11 -43 7 -5 3 -8 -8 -8 -11 0 -16 -3 -13 -7 4 -3 2 -12 -4 -19 -8
-9 -5 -16 12 -24 13 -7 24 -8 28 -3 3 5 14 12 23 16 18 7 17 31 -3 69 -11 21
-11 22 5 9 15 -12 16 -12 9 5 -3 10 -11 22 -17 26 -7 5 -7 8 2 8 7 0 11 4 8 9
-3 5 2 12 12 16 16 6 16 7 -2 21 -20 14 -20 14 0 14 15 0 16 2 5 9 -11 7 -12
13 -4 23 6 7 9 21 7 31 -2 14 2 17 14 12 13 -5 14 -3 5 6 -8 8 -9 19 -2 38 6
14 10 28 11 31 0 3 2 7 5 10 4 3 3 -1 -1 -7 -4 -8 -2 -13 6 -13 9 0 9 -3 -2
-10 -13 -8 -13 -10 2 -10 12 0 15 -6 10 -22 -4 -17 -2 -20 11 -15 9 3 19 2 22
-4 4 -5 3 -9 -2 -8 -20 3 -25 -2 -13 -16 7 -9 8 -15 2 -15 -5 0 -13 -7 -16
-16 -4 -10 -2 -13 7 -8 8 6 8 3 -1 -9 -8 -9 -11 -21 -7 -27 3 -5 -2 -10 -12
-10 -14 0 -13 -3 6 -17 32 -22 55 -7 61 42 3 26 10 39 23 41 9 1 15 -2 11 -7
-3 -5 -10 -6 -16 -3 -7 4 -8 2 -4 -5 4 -6 12 -9 17 -6 5 4 9 0 9 -7 0 -9 3 -9
10 2 6 9 10 11 10 3 0 -7 7 -10 15 -7 8 4 13 10 10 14 -3 5 0 10 6 12 6 2 12
18 13 35 1 18 -2 30 -6 27 -12 -8 -9 11 4 24 9 9 7 13 -6 18 -14 5 -15 9 -4
15 19 13 30 11 22 -3 -6 -10 -4 -10 7 0 17 15 43 16 33 0 -5 -7 -2 -9 9 -5 9
3 18 1 21 -6 3 -9 5 -9 5 0 1 7 8 10 16 7 9 -4 15 -1 15 7 0 10 3 10 12 1 9
-9 15 -9 27 1 12 10 13 9 6 -3 -8 -13 -7 -13 8 -1 9 7 17 9 17 4 0 -10 60 -10
78 1 7 4 12 3 12 -3 0 -10 18 -10 37 2 6 4 14 3 18 -3 3 -5 11 -10 16 -10 6 0
8 4 5 8 -3 5 1 9 9 9 11 0 12 -5 3 -20 -9 -17 -8 -19 8 -13 17 7 17 6 -1 -14
-11 -12 -13 -20 -6 -20 7 0 9 -5 6 -10 -4 -6 -12 -7 -18 -3 -8 4 -8 1 1 -9 18
-23 23 -57 10 -77 -8 -13 -8 -23 1 -37 12 -18 12 -18 6 1 -5 15 -3 17 6 8 6
-6 17 -10 23 -9 6 2 8 1 4 -1 -4 -2 -4 -11 -1 -19 3 -8 2 -14 -3 -13 -21 4
-28 -2 -14 -11 11 -7 11 -10 2 -10 -8 0 -10 -5 -5 -12 13 -21 14 -50 2 -42 -8
4 -8 0 0 -15 9 -16 9 -21 0 -21 -8 0 -7 -5 2 -17 12 -15 12 -16 -1 -8 -12 7
-13 6 -4 -6 14 -19 18 -83 4 -74 -16 10 -12 -4 9 -26 l19 -20 25 27 c19 20 23
32 17 44 -5 10 -6 20 -3 24 3 3 1 6 -7 6 -10 0 -10 3 0 15 9 11 9 15 1 15 -7
0 -9 5 -6 10 4 6 12 7 18 4 8 -5 8 -3 0 7 -19 19 -16 34 4 18 14 -12 14 -10
-1 14 -10 15 -14 27 -9 27 6 0 8 11 5 25 -2 15 0 25 7 25 6 0 11 12 11 26 0
17 4 23 13 18 9 -6 9 -4 -1 8 -9 11 -10 18 -2 23 6 3 8 11 5 16 -7 10 8 12 18
2 4 -3 -1 -12 -11 -20 -16 -12 -16 -13 2 -6 15 5 18 3 13 -10 -4 -10 -1 -17 6
-17 7 0 13 -9 14 -20 1 -11 -3 -20 -10 -20 -8 0 -8 -3 1 -12 16 -16 15 -31 -2
-25 -10 4 -14 0 -11 -14 2 -10 7 -24 10 -29 4 -6 -1 -7 -12 -3 -13 4 -15 3 -8
-5 27 -29 94 -13 75 18 -11 18 -1 47 20 53 11 3 18 14 18 31 0 14 -4 23 -9 20
-5 -3 -10 2 -10 10 -3 29 -4 34 -11 42 -12 11 -10 26 2 19 14 -9 12 9 -2 24
-11 10 -10 11 4 6 15 -6 16 -3 8 25 -8 27 -7 30 6 19 12 -10 13 -9 8 5 -5 12
-2 15 12 10 14 -4 16 -3 5 4 -8 6 -11 18 -6 32 4 12 9 19 12 16 4 -3 12 -1 19
5 13 10 51 9 70 -4 7 -4 11 0 10 9 -1 21 30 26 45 8 10 -12 8 -13 -7 -8 -19 7
-19 7 0 -14 12 -14 14 -22 7 -22 -7 0 -10 -4 -6 -9 3 -5 1 -13 -5 -16 -8 -5
-8 -11 0 -20 7 -8 8 -20 4 -26 -4 -8 -3 -9 5 -5 9 6 10 0 5 -20 -5 -21 -4 -25
7 -20 8 4 3 -1 -11 -13 -22 -17 -23 -21 -8 -26 9 -4 22 -4 27 0 7 4 8 -1 4
-11 -6 -16 -4 -16 20 2 25 18 39 42 16 28 -8 -5 -9 -2 -1 11 5 11 6 30 2 47
-5 15 -5 28 -1 28 5 0 6 11 3 25 -2 14 1 31 7 39 8 10 9 16 1 21 -5 3 -10 11
-10 16 0 6 4 8 9 5 5 -3 12 1 15 10 4 10 12 14 22 10 12 -4 15 -2 10 9 -4 12
-2 13 13 3 10 -6 18 -17 18 -24 0 -7 -4 -11 -8 -9 -4 3 -10 -2 -13 -11 -3 -8
-2 -12 4 -9 6 3 10 1 10 -4 0 -6 -3 -11 -7 -11 -5 0 -13 -12 -20 -26 -10 -21
-10 -24 2 -14 8 7 15 7 19 1 4 -5 15 -9 26 -8 19 1 24 13 22 47 0 8 8 26 19
40 14 17 19 19 15 7 -4 -11 -2 -16 5 -12 6 4 8 14 5 22 -8 20 15 48 39 47 11
0 29 7 39 15 11 9 16 10 12 4 -4 -7 -2 -13 3 -13 6 0 11 5 11 11 0 5 4 8 9 4
5 -3 16 1 23 9 10 9 20 11 31 5 11 -7 20 -3 32 13 8 13 19 22 23 21 10 -3 22
-67 13 -73 -3 -3 -6 -15 -5 -27 1 -13 -3 -23 -8 -23 -5 0 -7 -4 -4 -9 3 -5 0
-11 -7 -14 -10 -4 -17 -52 -7 -52 1 0 2 -14 3 -32 1 -17 -1 -29 -5 -27 -4 3
-6 -5 -5 -16 1 -11 5 -20 10 -20 4 0 5 -5 1 -12 -5 -8 -2 -9 10 -5 10 4 15 3
11 -3 -3 -6 -14 -10 -23 -11 -11 0 -12 -2 -4 -6 6 -2 9 -10 5 -16 -11 -19 -11
-47 1 -48 6 0 19 -2 28 -4 10 -2 21 2 25 7 4 7 1 8 -8 4 -8 -4 -6 -1 3 7 10 8
15 17 11 20 -3 4 -1 7 5 7 7 0 12 4 12 10 0 5 -7 7 -16 3 -14 -5 -15 -3 -5 15
9 17 8 23 -5 30 -15 8 -14 10 2 16 16 6 16 8 4 16 -12 8 -12 10 -1 10 11 0 11
3 0 17 -9 10 -9 14 -2 10 9 -6 11 2 9 27 -1 20 2 32 7 29 5 -3 7 0 5 8 -3 8 2
20 11 27 9 8 11 11 4 8 -13 -7 -12 19 2 31 4 4 5 3 2 -3 -3 -6 1 -11 9 -11 10
0 11 4 4 11 -5 5 -10 21 -10 35 0 21 4 18 23 -19 13 -27 19 -50 14 -57 -4 -6
-3 -13 5 -16 10 -4 10 -8 -2 -16 -8 -5 -11 -13 -7 -17 4 -4 0 -18 -8 -31 -14
-21 -14 -24 2 -30 10 -4 21 -11 25 -17 5 -7 8 -7 8 2 0 6 7 12 15 12 8 0 15 5
15 11 0 5 -6 7 -12 3 -10 -6 -10 -5 -1 8 7 8 10 18 6 21 -3 4 -1 7 7 7 10 0
10 4 -1 17 -10 11 -10 14 -1 9 6 -4 12 -2 12 3 0 6 5 10 11 8 6 -1 13 8 15 21
2 13 0 21 -4 18 -4 -2 -14 5 -21 16 -11 18 -11 20 2 15 12 -4 12 -1 3 19 -7
15 -17 22 -26 19 -9 -3 -8 1 4 10 10 8 24 12 30 8 6 -3 6 0 -1 7 -10 11 -9 16
5 27 9 8 12 12 5 9 -6 -4 -14 -2 -18 4 -3 5 -1 10 5 10 6 0 8 5 4 12 -4 6 1
17 12 25 10 8 18 16 17 18 -7 12 -2 23 13 29 12 5 14 3 8 -7 -5 -7 -2 -5 7 5
9 9 19 14 23 11 3 -4 16 4 27 16 17 18 23 20 30 9 7 -10 9 -9 9 6 0 15 3 16
15 6 13 -11 14 -10 9 4 -4 11 -1 16 10 16 9 0 16 4 16 9 0 5 14 12 30 16 17 4
28 11 24 16 -3 5 2 9 10 9 9 0 16 5 16 11 0 5 4 8 9 4 6 -3 14 2 19 11 5 9 13
17 18 17 5 1 8 6 6 10 -1 5 2 6 8 2 6 -4 17 -1 25 5 12 10 15 10 15 0 0 -8 3
-10 7 -7 3 4 13 1 21 -6 13 -9 14 -9 8 1 -5 8 -1 12 10 12 10 0 14 3 11 7 -4
3 1 12 11 20 9 8 11 12 5 8 -22 -11 -14 11 14 41 15 16 26 33 25 38 -2 5 3 4
11 -3 12 -9 16 -8 21 4 3 8 12 15 20 15 8 0 18 9 21 20 4 11 11 18 16 15 5 -4
9 1 9 9 0 9 7 16 15 16 8 0 15 5 15 11 0 5 4 7 10 4 6 -3 7 1 4 10 -4 10 -2
15 7 13 8 -2 13 2 12 9 -2 7 6 10 17 8 14 -3 17 1 13 12 -5 13 -2 15 11 10 10
-4 15 -3 11 3 -3 6 -1 10 5 10 6 0 8 5 5 10 -3 6 0 10 8 10 21 0 18 -45 -5
-69 -10 -12 -14 -21 -8 -21 6 0 8 -5 5 -10 -4 -6 -11 -7 -17 -4 -5 4 -3 -5 7
-19 12 -18 13 -27 4 -32 -8 -6 -8 -10 2 -16 10 -6 11 -9 2 -9 -7 0 -13 -7 -13
-16 0 -9 5 -12 12 -8 7 5 8 3 2 -7 -11 -18 -14 -39 -5 -39 4 0 7 -9 8 -20 1
-12 -3 -18 -9 -14 -6 4 -8 -1 -3 -16 5 -15 4 -20 -4 -16 -6 4 -9 1 -5 -7 6
-17 48 -14 70 4 10 8 11 16 5 22 -7 7 -7 16 0 29 7 13 6 18 -4 18 -8 0 -14 7
-14 15 0 10 4 12 12 5 8 -7 12 -5 12 5 0 8 -5 15 -10 15 -5 0 -4 7 3 15 10 12
10 15 -1 15 -12 0 -12 2 0 9 8 5 10 14 5 22 -4 8 -9 22 -9 31 -1 13 2 15 11 7
10 -8 12 -6 9 11 -7 37 4 51 28 38 20 -10 21 -10 8 5 -18 23 -9 21 17 -2 24
-20 30 -37 10 -25 -9 5 -9 2 1 -9 11 -15 11 -17 -2 -17 -10 0 -13 -6 -10 -20
3 -11 1 -26 -5 -33 -5 -7 -6 -21 -1 -32 4 -11 8 -14 8 -7 1 6 6 12 12 12 5 0
7 -6 3 -12 -6 -10 -5 -10 8 -1 8 7 18 9 23 5 4 -4 6 7 3 25 -3 20 -1 30 6 26
5 -4 7 1 3 10 -3 10 -2 17 4 17 6 0 7 4 4 10 -3 5 0 7 8 4 8 -3 18 -1 22 5 3
6 1 11 -6 11 -8 0 -8 4 1 15 10 12 9 16 -4 21 -9 3 -13 10 -10 15 3 5 0 9 -5
9 -6 0 -11 7 -11 15 0 8 5 15 12 15 6 0 3 7 -8 15 -13 11 -14 14 -4 13 11 -2
15 6 14 29 0 17 3 30 7 27 4 -2 11 1 14 6 5 8 14 5 27 -7 16 -14 20 -14 16 -3
-3 8 2 21 11 27 13 10 13 14 3 21 -16 10 -5 45 12 35 6 -3 8 -3 4 2 -4 4 -2
15 4 24 10 13 10 14 -2 4 -20 -18 -33 -16 -22 4 7 12 5 24 -5 40 -14 21 -14
23 3 23 17 0 17 1 -2 16 -10 8 -14 13 -7 10 11 -6 30 29 25 47 -1 5 2 6 8 2 5
-3 10 1 10 9 0 9 5 16 11 16 5 0 7 5 4 10 -3 6 1 10 10 10 9 0 13 4 10 10 -3
5 -1 10 6 10 7 0 10 3 6 6 -3 3 7 19 21 36 15 16 27 35 27 41 0 7 6 18 13 25
7 8 9 18 6 24 -4 6 -2 8 3 5 6 -4 17 1 24 10 12 14 12 16 -1 8 -12 -7 -13 -6
-3 7 7 8 9 19 5 23 -4 5 -2 6 3 2 6 -3 17 3 24 15 10 16 10 19 -1 13 -7 -3 -4
1 6 9 11 9 16 16 10 16 -5 0 -5 3 1 8 6 4 16 18 23 31 11 19 11 22 0 16 -7 -3
-5 0 5 8 9 8 17 20 17 26 0 7 5 9 13 5 9 -6 9 -4 -1 8 -10 13 -10 17 3 21 9 4
12 13 8 23 -4 12 -3 15 6 10 8 -6 11 -2 9 10 -2 11 2 18 9 17 7 -2 10 4 7 12
-4 8 -1 15 5 15 6 0 11 5 11 11 0 5 -5 7 -11 4 -12 -8 11 37 25 46 5 4 5 12 2
18 -4 6 -2 11 5 11 6 0 9 8 6 20 -3 11 -1 18 4 14 8 -4 14 17 10 39 0 4 4 7 9
7 5 0 9 3 9 8 -3 20 2 43 9 38 5 -3 9 1 9 9 0 8 -5 12 -10 8 -5 -3 -1 6 8 21
10 14 14 26 10 26 -4 0 -3 6 2 13 6 6 9 20 8 30 -2 9 1 17 7 17 5 0 8 8 7 18
-1 9 1 24 5 33 4 9 8 27 10 40 1 13 6 31 10 39 3 9 8 29 9 45 1 17 9 33 17 37
13 6 12 7 -2 7 -19 1 -13 41 6 41 7 0 6 4 -2 9 -11 7 -10 9 3 15 10 3 13 11 8
18 -11 18 -13 38 -4 38 5 0 7 12 6 28 -1 15 3 30 9 34 8 5 7 8 -1 8 -6 0 -9 9
-6 20 3 11 10 17 17 14 6 -3 2 2 -8 10 -11 9 -15 16 -8 16 6 0 9 7 5 17 -5 12
-3 14 8 8 11 -6 12 -5 2 5 -8 9 -9 19 -3 31 6 11 7 20 1 24 -9 5 -9 17 4 61 4
12 2 25 -4 28 -8 5 -8 13 0 27 7 15 7 24 -1 34 -8 10 -8 15 1 20 8 6 7 10 -2
16 -8 5 -9 9 -4 9 6 0 11 9 12 20 1 11 -2 18 -8 15 -5 -4 -5 4 1 19 6 18 6 26
-1 26 -6 0 -7 6 -3 12 11 17 12 48 2 42 -4 -3 -8 2 -8 10 0 9 6 16 13 16 8 0
8 3 -2 9 -8 5 -12 19 -9 35 4 19 1 26 -11 26 -14 0 -14 2 -1 10 11 7 12 12 3
21 -8 8 -9 18 -2 31 7 13 6 18 -2 18 -8 0 -8 4 1 15 10 11 9 18 -4 30 -8 9
-13 22 -10 30 4 9 0 15 -7 15 -9 1 -7 6 5 15 11 8 14 15 7 15 -7 0 -9 5 -5 13
5 7 0 6 -11 -3 -17 -14 -18 -14 -6 8 9 17 9 22 -1 22 -9 0 -9 3 2 10 9 6 11
10 3 10 -7 0 -10 7 -7 15 4 8 2 15 -3 15 -8 0 -10 8 -15 65 -1 14 -6 25 -10
25 -4 0 -8 5 -8 11 0 5 5 7 12 3 6 -4 4 3 -5 15 -8 13 -13 30 -10 39 5 11 3
13 -7 7 -10 -6 -12 -4 -7 8 3 10 2 17 -3 17 -5 0 -6 7 -3 17 4 11 3 14 -5 9
-15 -9 -16 6 -1 21 8 8 7 13 -2 18 -8 6 -10 4 -4 -6 5 -8 4 -11 -1 -6 -4 4 -9
18 -9 30 0 12 -5 21 -12 20 -7 -2 -10 3 -7 11 3 8 -2 29 -12 48 -13 25 -14 31
-3 23 8 -5 7 -3 -3 7 -11 10 -16 23 -11 34 4 12 3 15 -5 10 -8 -5 -10 -2 -6 8
3 9 1 16 -6 16 -6 0 -8 5 -5 10 3 6 1 10 -4 10 -6 0 -10 3 -9 8 5 15 -22 72
-34 73 -7 0 -4 4 7 9 17 7 17 9 3 9 -10 1 -20 12 -24 26 -3 14 -9 23 -13 21
-4 -3 -8 7 -9 21 -1 15 -9 35 -19 45 -9 10 -13 18 -9 18 4 0 0 7 -8 16 -9 8
-14 20 -11 25 4 5 -2 9 -12 9 -15 0 -16 2 -3 10 13 8 12 10 -2 10 -10 0 -18 7
-18 16 0 8 -7 22 -16 31 -8 9 -13 22 -10 30 3 8 1 11 -4 8 -6 -3 -10 1 -10 10
0 9 -4 14 -9 11 -11 -7 -23 22 -15 35 3 5 -5 9 -18 10 -13 0 -18 3 -11 6 9 3
9 8 2 16 -5 7 -17 21 -25 32 -9 11 -12 14 -8 6 5 -10 3 -12 -5 -7 -9 6 -9 11
1 24 8 9 8 13 1 9 -6 -4 -19 7 -32 29 -12 19 -25 32 -31 29 -5 -3 -7 0 -4 8 3
8 -2 17 -10 20 -9 4 -16 14 -16 22 0 10 -5 13 -12 9 -8 -5 -9 -2 -5 10 4 10 3
15 -3 11 -6 -3 -10 -1 -10 4 0 6 -7 11 -15 11 -8 0 -15 7 -15 16 0 9 -18 33
-40 54 -38 36 -53 59 -28 44 7 -4 8 -3 4 4 -4 6 -13 9 -20 6 -8 -3 -16 4 -19
16 -3 12 -10 19 -16 15 -10 -6 -16 8 -12 28 1 5 -3 6 -9 2 -5 -3 -13 1 -16 9
-3 9 -10 13 -15 10 -5 -3 -9 0 -9 6 0 15 -26 41 -34 33 -3 -4 -6 1 -6 10 0 10
-7 17 -16 17 -8 0 -12 5 -9 10 3 6 -1 10 -9 10 -8 0 -20 9 -26 20 -6 11 -17
20 -25 20 -8 0 -15 7 -15 16 0 8 -4 12 -10 9 -5 -3 -10 -1 -10 4 0 6 -7 11
-16 11 -8 0 -13 4 -10 8 3 5 -7 15 -22 23 -36 18 -53 35 -44 43 3 4 -1 4 -11
0 -12 -4 -17 -1 -17 10 0 9 -6 15 -12 14 -7 -2 -12 3 -10 11 2 9 -3 11 -13 7
-9 -3 -18 1 -21 9 -4 8 -12 15 -20 15 -8 0 -14 4 -14 10 0 5 -7 6 -17 3 -9 -4
-14 -2 -10 3 3 6 2 16 -4 24 -6 12 -9 12 -9 2 0 -10 -4 -9 -16 2 -8 9 -21 13
-27 9 -6 -4 -8 0 -4 10 3 9 3 16 -1 16 -25 -4 -42 2 -36 13 5 7 2 9 -9 5 -9
-3 -18 0 -21 9 -3 8 -12 14 -21 14 -8 0 -15 4 -15 9 0 5 -7 12 -16 15 -12 5
-14 3 -8 -7 5 -7 1 -4 -8 6 -10 11 -18 16 -18 12 0 -3 -7 1 -16 9 -8 9 -24 16
-35 16 -13 0 -18 4 -13 12 4 6 3 9 -2 6 -14 -8 -56 10 -49 21 3 6 -4 8 -15 6
-11 -2 -20 0 -20 5 0 4 -7 11 -16 14 -10 4 -13 2 -9 -7 4 -6 0 -4 -8 5 -8 10
-17 15 -20 11 -4 -3 -7 -1 -7 6 0 7 -4 9 -10 6 -5 -3 -10 -2 -10 4 0 5 -9 8
-20 6 -11 -2 -20 1 -20 6 0 6 -4 7 -10 4 -5 -3 -10 -3 -10 2 0 4 -11 13 -25
20 -19 8 -24 8 -19 0 3 -7 -1 -4 -9 5 -8 10 -17 15 -21 11 -4 -4 -11 -1 -16 7
-6 10 -10 11 -10 3 0 -8 -17 -3 -46 13 -26 14 -43 20 -38 12 6 -11 5 -11 -8 0
-8 7 -24 9 -33 5 -13 -4 -16 -3 -11 5 5 8 -2 12 -19 12 -14 0 -24 4 -21 8 3 5
-1 9 -9 9 -8 0 -11 -5 -8 -11 8 -13 -28 14 -39 29 -5 6 -8 5 -8 -2 0 -7 -9
-13 -20 -13 -11 0 -20 5 -20 11 0 5 -4 7 -10 4 -5 -3 -10 0 -10 7 0 10 -2 10
-9 -1 -6 -9 -11 -10 -15 -3 -4 6 -14 8 -23 5 -11 -4 -14 -3 -9 5 5 8 2 10 -8
6 -9 -3 -16 -1 -16 5 0 8 -6 9 -18 2 -14 -7 -25 -6 -40 5 -16 11 -22 12 -22 3
0 -10 -3 -10 -11 -2 -6 6 -18 9 -25 6 -10 -4 -12 0 -8 13 3 11 2 15 -3 8 -14
-18 -41 -23 -52 -10 -6 7 -7 17 -3 21 4 5 1 5 -6 1 -7 -4 -9 -12 -6 -18 4 -6
-2 -6 -15 1 -16 9 -21 9 -21 -1 0 -9 -3 -9 -10 2 -5 8 -10 12 -10 9 0 -4 -16
-3 -35 1 -24 5 -35 4 -35 -4 0 -6 -4 -5 -9 3 -5 8 -17 16 -25 17 -9 1 -14 -2
-10 -7 3 -5 10 -6 16 -3 7 4 8 2 4 -4 -5 -9 -13 -9 -29 0 -12 7 -26 11 -32 9
-30 -9 -45 -9 -45 1 0 7 -5 6 -14 -1 -10 -8 -16 -9 -21 -1 -4 7 -12 7 -25 0
-24 -13 -30 -13 -30 1 0 5 5 7 12 3 7 -4 8 -3 4 4 -9 15 -9 15 -24 0z m-236
-294 c-5 -14 -4 -15 9 -4 8 7 15 9 15 4 0 -5 5 -2 10 6 7 11 10 11 10 2 0 -7
4 -11 8 -8 5 3 9 -1 9 -9 0 -11 -3 -12 -14 -3 -12 10 -13 7 -8 -18 5 -23 4
-26 -5 -14 -9 12 -11 12 -8 1 2 -8 14 -15 26 -16 12 -1 25 -5 29 -9 5 -4 1 -7
-7 -5 -8 2 -26 -3 -39 -10 -13 -7 -21 -8 -17 -3 9 15 -4 42 -20 42 -8 0 -14 5
-14 11 0 5 6 7 13 3 8 -6 8 -3 -1 9 -8 9 -11 21 -7 27 10 16 18 12 11 -6z
m-245 -27 c-10 -9 -11 -8 -5 6 3 10 9 15 12 12 3 -3 0 -11 -7 -18z m969 -21
c0 -3 -4 -8 -10 -11 -5 -3 -10 -1 -10 4 0 6 5 11 10 11 6 0 10 -2 10 -4z m40
-20 c0 -3 -4 -8 -10 -11 -5 -3 -10 -1 -10 4 0 6 5 11 10 11 6 0 10 -2 10 -4z
m-670 -32 c0 -3 -4 -2 -10 1 -5 3 -18 1 -27 -5 -16 -11 -16 -11 -1 -6 10 3 20
1 23 -5 4 -5 11 -6 17 -3 7 4 8 2 4 -5 -4 -6 -12 -8 -18 -5 -8 5 -9 1 -5 -10
5 -14 3 -15 -12 -6 -24 13 -31 30 -19 53 7 14 13 15 28 7 11 -6 20 -13 20 -16z
m41 -1 c12 -16 12 -17 -2 -6 -9 7 -20 9 -24 5 -5 -4 -5 -1 -1 6 9 16 11 15 27
-5z m130 -112 c7 11 9 11 9 1 0 -10 5 -10 21 -1 15 8 19 8 15 0 -4 -6 0 -11 9
-11 9 0 14 4 11 9 -10 16 18 6 42 -14 24 -21 28 -35 11 -35 -5 0 -7 5 -3 12 5
8 2 9 -9 5 -9 -3 -19 -1 -23 5 -4 7 -3 8 4 4 8 -5 10 -2 6 9 -8 19 -13 15 -19
-14 -2 -12 0 -19 4 -16 5 3 20 -4 32 -15 l24 -19 -22 6 c-14 3 -23 1 -23 -6 0
-7 -4 -9 -10 -6 -5 3 -10 1 -10 -6 0 -8 -4 -8 -15 1 -13 11 -14 10 -9 -5 5
-12 4 -16 -4 -11 -6 3 -15 -2 -21 -11 -6 -10 -11 -14 -11 -10 0 12 -50 -44
-50 -57 0 -6 -5 -4 -10 4 -8 12 -10 12 -10 -5 -1 -18 -2 -17 -14 5 -8 14 -12
28 -9 32 2 5 -3 11 -11 14 -9 3 -13 10 -10 15 3 5 0 9 -5 9 -6 0 -11 5 -11 10
0 6 -9 20 -20 32 -23 25 -11 49 21 43 10 -2 19 -1 19 3 0 4 15 9 32 10 18 2
37 7 43 13 6 6 11 6 14 -2 2 -8 6 -7 12 2z m-1103 -46 c-3 -3 -9 2 -12 12 -6
14 -5 15 5 6 7 -7 10 -15 7 -18z m1259 -16 c0 -21 -3 -26 -9 -16 -4 9 -5 22
-2 31 9 23 11 20 11 -15z m-1354 -86 c33 -1 36 -3 32 -22 -2 -13 1 -18 9 -15
7 3 12 -5 12 -20 0 -24 -1 -24 -18 -9 -10 9 -18 14 -19 12 -8 -47 -8 -53 0
-39 6 8 13 11 18 7 4 -5 1 -12 -7 -17 -10 -6 -25 -2 -45 10 -22 14 -35 16 -45
9 -12 -9 -12 -10 3 -5 9 3 17 1 17 -5 0 -6 5 -7 12 -3 7 5 8 3 3 -6 -5 -8 -4
-11 3 -6 6 3 13 3 16 -2 2 -4 -4 -9 -15 -9 -10 -1 -19 3 -19 9 0 6 -3 8 -6 5
-4 -3 -16 -2 -27 4 -14 8 -18 8 -13 0 4 -6 3 -11 -3 -11 -6 0 -8 -8 -5 -17 5
-15 4 -16 -5 -3 -9 12 -11 13 -11 1 0 -8 -3 -11 -6 -8 -4 4 -1 13 6 22 9 11 9
15 1 15 -7 0 -9 5 -5 13 4 7 3 9 -2 4 -5 -5 -10 -13 -10 -18 -1 -5 -2 -10 -4
-11 -1 -2 -3 -11 -5 -21 -2 -11 -7 -22 -11 -25 -4 -4 -4 1 -1 10 3 10 2 20 -3
23 -6 4 -10 -1 -10 -9 0 -9 -4 -16 -8 -16 -5 0 -9 7 -9 15 0 8 4 15 9 15 4 0
8 5 8 11 0 5 -4 7 -10 4 -5 -3 -10 -2 -10 4 0 5 -3 17 -7 27 -4 12 -3 15 5 10
8 -4 12 0 13 11 0 10 3 13 6 6 2 -7 9 -13 14 -13 4 0 6 7 3 15 -4 9 3 18 19
24 13 5 27 17 31 26 4 12 14 16 31 13 14 -3 25 -1 25 6 0 6 6 4 13 -4 7 -9 20
-16 30 -17z m-192 -100 c5 -13 3 -28 -6 -40 -13 -17 -14 -17 -10 5 2 12 0 20
-4 17 -5 -3 -11 2 -14 10 -4 10 -1 12 11 8 15 -6 16 -5 2 12 -12 15 -12 17 -1
14 8 -3 18 -14 22 -26z m273 9 c3 -5 -1 -9 -9 -9 -8 0 -12 4 -9 9 3 4 7 8 9 8
2 0 6 -4 9 -8z m-734 -62 c0 -5 -5 -10 -11 -10 -5 0 -7 5 -4 10 3 6 8 10 11
10 2 0 4 -4 4 -10z m585 1 c3 -5 2 -12 -3 -15 -5 -3 -9 1 -9 9 0 17 3 19 12 6z
m2497 -95 c7 4 8 2 4 -5 -9 -13 -26 -5 -25 12 0 9 2 8 6 -1 2 -6 10 -9 15 -6z
m-32 -20 c0 -2 -7 -6 -15 -10 -8 -3 -15 -1 -15 4 0 6 7 10 15 10 8 0 15 -2 15
-4z m-192 -29 c8 -10 6 -13 -11 -14 -12 0 -16 1 -9 4 6 3 10 9 6 14 -8 14 2
11 14 -4z m152 -13 c0 -8 -19 -13 -24 -6 -3 5 1 9 9 9 8 0 15 -2 15 -3z m-36
-20 c3 -8 2 -12 -4 -9 -6 3 -10 10 -10 16 0 14 7 11 14 -7z m-1684 -4 c0 -5
-5 -10 -11 -10 -5 0 -7 5 -4 10 3 6 8 10 11 10 2 0 4 -4 4 -10z m1567 4 c-3
-3 -12 -4 -19 -1 -8 3 -5 6 6 6 11 1 17 -2 13 -5z m558 -4 c3 -6 -1 -7 -9 -4
-18 7 -21 14 -7 14 6 0 13 -4 16 -10z m99 -2 c-3 -4 -9 -8 -15 -8 -5 0 -9 4
-9 8 0 5 7 9 15 9 8 0 12 -4 9 -9z m-2196 -29 c12 0 13 -2 4 -6 -10 -4 -7 -9
8 -17 13 -6 22 -15 22 -21 0 -5 6 -14 14 -18 8 -5 12 -12 9 -18 -4 -5 -1 -9 6
-9 7 0 9 -3 6 -7 -4 -3 0 -17 9 -31 9 -13 11 -21 5 -18 -6 4 -11 2 -11 -3 0
-6 7 -11 16 -11 8 0 12 -5 9 -10 -4 -6 -11 -7 -17 -4 -7 4 -8 2 -4 -5 4 -6 12
-9 17 -6 5 4 9 4 9 1 0 -2 3 -11 6 -20 3 -9 1 -16 -6 -16 -6 0 -8 5 -4 12 4 7
3 8 -4 4 -9 -5 -9 -13 -2 -26 13 -24 13 -30 -1 -30 -5 0 -7 6 -4 13 4 6 -1 3
-10 -8 -9 -11 -23 -18 -33 -17 -14 3 -14 2 -2 -15 12 -15 12 -16 0 -5 -8 6
-18 12 -23 12 -4 0 -5 -6 -1 -12 5 -9 3 -9 -9 1 -9 7 -14 17 -11 22 3 5 -2 6
-10 3 -12 -5 -13 -11 -5 -27 9 -20 9 -20 -4 -5 -8 10 -18 14 -22 10 -5 -4 -4
0 0 8 15 25 13 51 -2 46 -8 -3 -11 -1 -8 4 3 6 2 10 -4 10 -5 0 -8 12 -7 28 2
15 -1 32 -6 39 -5 7 -5 14 1 17 6 4 8 14 5 24 -5 14 -4 14 4 2 8 -10 8 -18 0
-27 -6 -7 -6 -13 -2 -13 15 0 35 38 24 45 -15 9 -12 25 5 25 8 0 15 5 15 11 0
5 -4 7 -10 4 -5 -3 -10 -3 -11 2 0 4 -2 16 -4 25 -2 10 1 21 7 24 6 4 5 10 -3
16 -11 7 -9 8 4 4 10 -3 26 -6 35 -7z m764 -46 c-1 -4 7 -17 16 -28 l17 -20
-24 20 -24 20 7 -25 c4 -14 4 -20 -1 -14 -4 6 -17 16 -28 23 -13 8 -14 11 -3
7 17 -5 42 15 33 27 -3 4 -2 5 1 3 3 -2 6 -8 6 -13z m473 -54 c-4 -5 -12 -9
-18 -8 -9 0 -8 2 1 6 6 2 9 10 6 15 -4 7 -2 8 5 4 6 -4 9 -12 6 -17z m-272
-23 c7 4 9 4 5 -1 -4 -4 0 -14 8 -22 8 -8 12 -19 9 -24 -4 -5 -1 -9 5 -9 6 0
8 -4 5 -10 -3 -5 -1 -10 4 -10 6 0 11 -5 11 -11 0 -5 -6 -7 -12 -3 -9 5 -9 2
1 -9 7 -9 12 -17 10 -18 -33 -6 -35 -5 -34 15 3 29 -5 47 -18 39 -5 -3 -7 -1
-3 5 3 5 3 12 -1 15 -5 2 -2 2 5 0 8 -1 12 3 10 9 -3 7 -11 13 -18 13 -7 0
-15 11 -16 25 -3 21 -2 23 7 7 6 -9 16 -14 22 -11z m143 2 c3 -10 2 -22 -1
-28 -4 -6 -3 -10 2 -9 26 5 32 -2 23 -26 -6 -15 -6 -27 0 -30 6 -3 5 -16 0
-33 -10 -25 -9 -26 5 -8 8 11 15 15 15 9 0 -7 -5 -15 -11 -19 -6 -3 -9 -14 -6
-24 3 -13 0 -16 -13 -13 -24 6 -49 93 -28 93 5 0 6 5 3 10 -3 6 -1 10 6 10 7
0 9 3 6 6 -4 4 -14 1 -23 -7 -16 -13 -16 -12 -6 8 14 26 15 36 3 28 -5 -3 -9
7 -9 23 1 32 24 39 34 10z m244 12 c0 -5 5 -10 11 -10 5 0 7 5 4 10 -4 6 6 10
22 10 15 0 24 -4 18 -8 -13 -9 -18 -32 -7 -32 5 0 9 -7 9 -15 0 -12 -3 -12
-15 -2 -13 10 -14 9 -3 -10 10 -19 9 -22 -4 -17 -20 8 -16 -15 5 -34 8 -8 9
-11 3 -7 -7 3 -13 1 -13 -5 0 -6 -5 -8 -11 -4 -8 4 -8 0 0 -15 12 -22 7 -41
-10 -41 -5 0 -9 5 -9 11 0 7 -10 20 -22 30 -11 11 -16 19 -10 19 7 0 12 8 12
18 0 14 -2 15 -10 2 -8 -12 -9 -10 -7 7 2 12 7 26 12 30 4 5 5 2 1 -4 -4 -7
-2 -13 3 -13 15 0 14 23 -1 38 -8 8 -4 10 18 6 16 -2 25 -1 19 3 -21 17 -37
43 -26 43 6 0 11 -4 11 -10z m-105 -10 c-4 -6 -1 -19 6 -28 12 -16 12 -16 -5
0 -16 14 -15 38 0 38 3 0 2 -5 -1 -10z m-10 -40 c10 -11 14 -20 9 -20 -5 0
-15 9 -22 20 -7 11 -11 20 -9 20 2 0 12 -9 22 -20z m-1305 -24 c0 -3 -4 -8
-10 -11 -5 -3 -10 -1 -10 4 0 6 5 11 10 11 6 0 10 -2 10 -4z m-636 -118 c-3
-4 -9 -8 -15 -8 -5 0 -9 4 -9 8 0 5 7 9 15 9 8 0 12 -4 9 -9z m-77 -17 c-9
-12 -5 -11 16 2 15 10 27 13 27 7 0 -7 14 -9 38 -6 26 4 33 3 22 -4 -10 -6
-11 -10 -2 -10 6 0 12 -5 12 -11 0 -5 -6 -7 -12 -3 -8 4 -10 3 -5 -2 5 -5 14
-9 20 -9 18 0 17 -43 -1 -57 -13 -11 -14 -11 -7 1 6 11 4 13 -8 8 -11 -4 -14
-2 -10 9 6 17 -23 19 -31 2 -4 -7 -4 -3 -2 10 4 19 2 21 -9 12 -8 -7 -13 -15
-12 -18 1 -4 -5 -17 -14 -30 -14 -20 -17 -21 -23 -6 -4 9 -12 14 -22 10 -9 -4
-12 -2 -8 5 3 6 17 9 30 6 14 -2 21 0 17 6 -4 6 -1 7 7 2 8 -5 11 -4 6 3 -4 6
-14 8 -23 5 -10 -4 -14 -2 -9 5 3 6 2 14 -4 17 -6 4 -9 2 -8 -3 2 -6 -1 -10
-7 -10 -5 0 -9 5 -7 11 2 6 -4 5 -12 -2 -9 -8 -25 -11 -36 -8 -13 3 -18 1 -13
-6 4 -6 0 -8 -10 -4 -11 4 -14 2 -10 -9 3 -8 1 -14 -5 -12 -5 2 -9 0 -8 -3 0
-4 -6 -15 -15 -25 -9 -11 -15 -27 -14 -37 2 -9 -1 -15 -6 -11 -5 3 -9 -1 -9
-9 0 -8 -7 -18 -16 -21 -9 -3 -12 -2 -9 5 4 6 0 9 -8 7 -9 -2 -15 2 -14 7 1 6
5 9 10 8 4 -2 7 11 7 28 0 21 4 28 13 23 6 -4 9 -4 5 1 -4 4 -2 17 4 29 7 11
12 24 13 29 0 4 5 8 10 9 6 0 15 8 22 17 7 9 13 12 13 7 0 -6 7 -1 15 10 10
13 14 14 15 5 0 -9 4 -10 13 -4 6 6 22 9 35 8 13 -1 21 3 19 9 -3 7 4 12 14
12 15 0 16 -3 6 -15z m2338 9 c-4 -6 -2 -17 5 -25 12 -15 0 -28 -17 -17 -10 7
0 52 12 52 4 0 3 -5 0 -10z m-420 -12 c5 4 5 1 1 -6 -4 -7 -12 -10 -17 -7 -5
4 -9 1 -9 -4 0 -6 4 -11 8 -11 5 0 8 -11 8 -25 -1 -14 -5 -25 -9 -25 -4 0 -11
0 -16 0 -10 0 -12 29 -5 68 4 18 8 21 18 13 7 -6 17 -7 21 -3z m-1773 -100
c-7 -7 -12 -8 -12 -2 0 14 12 26 19 19 2 -3 -1 -11 -7 -17z m2198 -82 c0 -3
-4 -8 -10 -11 -5 -3 -10 -1 -10 4 0 6 5 11 10 11 6 0 10 -2 10 -4z m154 -55
c-1 -14 3 -32 9 -40 8 -10 8 -13 1 -8 -7 4 -11 -2 -11 -18 0 -14 4 -22 10 -18
6 3 7 1 3 -5 -4 -7 -15 -12 -24 -12 -13 0 -14 -2 -4 -9 11 -7 11 -9 -1 -14
-20 -8 -29 3 -17 19 14 16 22 56 10 49 -5 -3 -11 -1 -15 5 -3 5 1 10 9 10 12
0 14 5 6 26 -7 16 -7 23 0 19 6 -3 10 -2 10 4 0 5 -4 12 -10 16 -5 3 -7 12 -3
21 9 23 31 -13 27 -45z m113 -53 c-2 -19 0 -25 8 -18 7 6 11 3 12 -11 1 -11
-2 -17 -6 -15 -4 3 -8 -1 -8 -9 0 -8 4 -12 9 -9 4 3 8 0 8 -5 0 -6 -6 -11 -12
-11 -9 0 -9 -3 -3 -8 13 -9 13 -27 1 -39 -5 -5 -6 -2 -1 6 5 9 4 12 -3 7 -14
-9 -3 -38 12 -30 6 3 0 -4 -14 -16 -14 -12 -19 -18 -11 -14 9 4 12 3 8 -3 -4
-6 -18 -13 -32 -15 -16 -3 -22 -1 -18 6 10 16 11 46 1 40 -4 -3 -8 -2 -9 3 0
4 -2 18 -3 31 -2 14 2 21 9 18 6 -2 12 2 12 10 0 9 -6 13 -16 9 -11 -4 -10 0
5 16 11 14 13 19 4 14 -13 -7 -13 -6 -2 7 7 8 9 24 5 33 -4 12 -3 16 4 12 7
-5 9 0 6 13 -3 11 -10 17 -16 13 -5 -3 -7 -1 -4 5 5 7 15 7 33 -1 20 -10 24
-18 21 -39z m190 -5 c7 -6 13 -19 13 -28 0 -10 5 -13 13 -9 8 5 8 2 -2 -9 -12
-16 -8 -22 12 -18 5 1 6 -3 2 -9 -3 -6 -10 -8 -15 -5 -4 3 -10 2 -13 -2 -2 -5
-2 -2 -1 5 2 6 -1 12 -7 12 -6 0 -7 5 -4 10 4 6 1 17 -5 25 -7 8 -9 15 -4 15
4 0 -1 7 -12 15 -13 10 -14 14 -4 13 8 -2 20 -8 27 -15z m-89 -11 c2 -7 -1
-12 -8 -12 -6 0 -9 4 -6 9 4 5 1 12 -4 14 -6 3 -5 4 2 3 6 -1 14 -8 16 -14z
m-323 -151 c3 -5 2 -12 -3 -15 -5 -3 -9 1 -9 9 0 17 3 19 12 6z m-3115 -25 c0
-2 -7 -9 -15 -16 -13 -11 -14 -10 -9 4 5 14 24 23 24 12z m45 -46 c3 -6 -1 -7
-9 -4 -18 7 -21 14 -7 14 6 0 13 -4 16 -10z m-10 -120 c-3 -5 -11 -10 -16 -10
-6 0 -7 5 -4 10 3 6 11 10 16 10 6 0 7 -4 4 -10z m245 0 c0 -5 -5 -10 -11 -10
-5 0 -7 5 -4 10 3 6 8 10 11 10 2 0 4 -4 4 -10z m-155 -10 c-3 -5 -1 -10 5
-10 8 0 8 -6 0 -20 -6 -10 -9 -24 -8 -31 2 -6 -3 -14 -9 -16 -9 -3 -12 4 -11
21 1 14 6 26 11 26 5 0 7 6 4 14 -3 8 -3 17 0 20 10 10 15 7 8 -4z m355 -24
c0 -3 -4 -8 -10 -11 -5 -3 -10 -1 -10 4 0 6 5 11 10 11 6 0 10 -2 10 -4z m605
-37 c-2 -9 3 -16 10 -16 7 0 10 8 7 21 l-5 21 19 -20 c10 -12 15 -15 10 -8 -5
8 -4 13 2 13 6 0 13 -4 17 -10 3 -5 12 -7 20 -4 8 4 12 10 9 15 -3 5 3 6 12 2
14 -5 15 -8 3 -17 -8 -6 -15 -18 -17 -26 -4 -17 -24 -32 -32 -23 -3 3 1 8 8
10 6 3 12 10 12 16 -1 7 -10 1 -20 -12 -11 -13 -20 -18 -20 -12 0 6 -7 8 -17
4 -12 -5 -14 -3 -8 7 6 10 4 12 -8 7 -10 -3 -17 -2 -17 3 0 5 -8 7 -17 3 -10
-3 -15 -3 -11 2 4 4 3 15 -2 24 -7 14 -3 17 20 16 20 0 27 -4 25 -16z m-969
-64 c0 -19 -7 -40 -15 -47 -8 -8 -11 -8 -7 -1 3 6 2 13 -4 15 -11 3 9 68 21
68 4 0 6 -16 5 -35z m4290 -1295 c0 -10 -2 -17 -5 -15 -2 3 -11 -1 -20 -8 -14
-11 -14 -10 -2 6 7 9 10 17 5 17 -6 0 9 15 21 20 1 0 1 -9 1 -20z m-38 -12
c-2 -19 1 -23 22 -20 22 2 23 1 8 -8 -20 -12 -25 -35 -5 -25 6 4 4 0 -6 -8
-14 -11 -15 -16 -5 -20 7 -3 -2 -6 -20 -6 -20 -1 -31 3 -27 9 4 6 1 9 -7 8 -7
-2 -12 3 -10 10 3 18 -6 15 -17 -7 -9 -15 -7 -18 7 -17 9 0 16 -5 14 -13 -1
-7 3 -21 10 -30 11 -14 11 -14 -3 -4 -9 7 -19 11 -22 8 -4 -3 -5 -2 -3 1 7 9
-26 44 -36 38 -4 -3 -5 1 -3 8 3 7 20 23 39 35 31 20 34 20 52 5 18 -17 18
-16 0 5 -17 21 -19 21 -44 5 -34 -22 -57 -26 -41 -6 6 7 15 12 19 9 4 -3 20 5
36 17 15 13 25 17 20 10 -4 -6 -2 -12 3 -12 6 0 11 7 11 15 0 8 3 15 6 15 3 0
4 -10 2 -22z m-91 -113 c0 -8 -4 -12 -9 -9 -5 3 -6 10 -3 15 9 13 12 11 12 -6z
m77 -1 c3 -8 2 -12 -4 -9 -6 3 -10 10 -10 16 0 14 7 11 14 -7z m-540 -5 c3 -3
-6 -6 -19 -7 -13 -1 -26 2 -29 6 -5 8 40 9 48 1z m-35 -24 c22 0 36 -5 38 -15
4 -13 3 -13 -6 0 -10 13 -11 13 -11 0 0 -13 -1 -13 -10 0 -9 13 -10 13 -10 0
0 -13 -1 -13 -10 0 -6 10 -10 11 -10 3 0 -20 -14 -15 -28 8 -11 17 -11 20 0
13 7 -5 28 -9 47 -9z m-199 -15 c0 -5 -5 -10 -11 -10 -5 0 -7 5 -4 10 3 6 8
10 11 10 2 0 4 -4 4 -10z m-38 -53 c-7 -8 -8 -18 -4 -22 4 -5 1 -5 -5 -1 -9 5
-13 0 -13 -12 0 -11 -7 -22 -15 -26 -8 -3 -14 -11 -13 -18 2 -7 -3 -12 -9 -10
-12 2 -17 -11 -14 -31 1 -5 -2 -6 -6 -4 -5 3 -14 -1 -21 -9 -7 -8 -10 -14 -7
-14 4 0 -7 -17 -24 -37 -16 -20 -27 -41 -24 -46 3 -6 2 -7 -4 -4 -13 8 -45
-31 -37 -45 4 -6 3 -8 -4 -4 -6 3 -13 -3 -17 -14 -3 -11 -14 -20 -23 -19 -11
0 -13 2 -4 6 10 4 10 8 0 21 -12 16 -11 16 6 2 18 -14 19 -13 13 3 -4 11 -3
16 3 12 10 -6 13 3 13 37 0 10 3 15 8 13 4 -3 10 -1 14 5 4 6 10 8 15 5 4 -3
10 2 13 10 4 10 1 12 -10 8 -13 -5 -12 -2 2 15 10 11 23 18 30 16 8 -3 12 3
11 18 0 14 4 22 12 21 6 -2 12 6 12 17 0 11 5 19 12 18 7 -2 12 2 13 7 0 6 9
24 19 40 9 17 15 21 12 10 -6 -22 -3 -18 33 34 8 11 17 18 19 16 3 -3 0 -11
-6 -18z m-262 -351 c-14 -14 -22 -2 -14 18 5 14 9 15 15 4 4 -7 4 -17 -1 -22z
m35 15 c3 -5 2 -12 -3 -15 -5 -3 -9 1 -9 9 0 17 3 19 12 6z m625 -55 c0 -6 -5
-5 -12 2 -8 8 -15 8 -24 1 -8 -7 -14 -7 -19 1 -4 6 -1 9 7 8 7 -2 12 3 10 10
-2 10 2 10 18 0 11 -7 20 -17 20 -22z m50 24 c-18 -12 -30 -13 -30 -2 0 4 10
9 22 9 18 2 20 0 8 -7z m-743 -18 c-10 -10 -14 -22 -10 -27 5 -4 2 -5 -5 -1
-11 6 -10 12 4 27 9 10 19 19 22 19 3 0 -2 -8 -11 -18z m-912 -263 c5 -5 17
-9 27 -9 10 0 18 -6 19 -12 0 -10 2 -10 6 0 4 10 8 9 19 -5 9 -13 13 -14 14
-4 0 11 3 11 15 1 8 -7 15 -9 15 -6 0 4 9 2 20 -4 15 -8 19 -18 16 -33 -3 -14
-1 -12 6 6 15 34 23 34 25 0 1 -20 -1 -23 -9 -12 -7 10 -8 7 -5 -14 4 -23 2
-25 -10 -15 -12 10 -12 7 -2 -15 9 -21 15 -24 25 -16 8 6 11 15 8 20 -3 5 -3
9 0 9 3 0 7 -4 11 -9 7 -12 -35 -52 -47 -45 -4 3 -8 0 -8 -5 0 -6 -4 -11 -10
-11 -5 0 -10 7 -10 15 0 8 7 15 15 15 21 0 19 17 -4 30 -14 7 -22 7 -26 0 -4
-6 -3 -10 2 -9 27 5 35 -4 13 -13 -14 -6 -29 -10 -35 -9 -5 2 -7 -1 -3 -5 4
-4 2 -14 -5 -22 -9 -13 -9 -14 0 -8 8 4 11 2 8 -6 -6 -16 -42 -21 -50 -7 -4 5
2 6 12 2 15 -6 16 -5 3 9 -8 9 -17 12 -18 7 -2 -5 -8 -6 -14 -3 -5 4 -5 -3 2
-16 6 -12 9 -24 6 -28 -3 -3 -6 0 -6 6 0 7 -7 12 -16 12 -8 0 -12 -4 -9 -10 3
-5 2 -10 -3 -10 -6 0 -13 7 -16 16 -3 8 -2 12 3 9 5 -3 13 0 17 6 4 8 3 9 -4
5 -16 -10 -15 6 1 24 10 12 9 12 -5 1 -9 -7 -23 -9 -29 -5 -8 5 -9 3 -3 -7 5
-8 9 -21 9 -29 0 -8 4 -22 10 -30 8 -13 7 -13 -10 0 -17 14 -18 13 -12 -5 7
-19 7 -19 -8 -1 -12 16 -17 17 -32 5 -10 -7 -15 -10 -12 -6 4 5 3 23 -1 42 -6
25 -5 33 4 29 6 -3 2 2 -9 12 -20 16 -20 16 5 11 21 -5 23 -4 9 6 -24 18 -34
57 -15 57 10 0 13 6 10 15 -4 9 0 15 7 15 11 0 11 2 0 9 -12 7 -12 13 -3 24 7
7 9 17 6 20 -3 3 -3 10 1 16 7 12 65 5 80 -10z m1466 -59 c3 -20 4 -25 13 -39
6 -10 5 -12 -2 -7 -7 4 -12 2 -12 -3 0 -6 -5 -11 -11 -11 -8 0 -9 4 0 13 6 8
8 17 4 21 -11 10 -12 36 -2 36 5 0 10 -4 10 -10z m9 -76 c0 -8 -19 -13 -24 -6
-3 5 1 9 9 9 8 0 15 -2 15 -3z m-96 -35 c-3 -5 -11 -6 -17 -2 -7 3 -4 -3 6
-14 17 -19 16 -21 -8 -47 -14 -15 -23 -31 -20 -36 3 -4 -4 -6 -16 -3 -19 5
-20 7 -4 15 15 9 15 11 -2 30 -18 21 -18 21 7 8 24 -13 24 -12 10 5 -14 17
-14 17 7 7 15 -8 24 -9 28 -2 4 6 1 9 -5 8 -7 -2 -16 7 -21 20 -6 15 -5 21 1
17 6 -3 10 -2 10 4 0 6 7 8 15 5 8 -4 12 -10 9 -15z m-1261 -10 c4 -16 3 -18
-9 -8 -7 6 -11 15 -8 20 8 13 11 11 17 -12z m319 -69 c20 6 32 4 42 -6 10 -9
16 -10 18 -3 3 8 9 6 20 -4 8 -9 18 -13 22 -10 3 4 6 0 6 -7 0 -10 3 -11 11
-3 9 9 18 5 36 -13 13 -13 29 -22 34 -19 5 4 9 -1 9 -9 0 -8 9 -20 19 -26 26
-13 24 -49 -2 -44 -14 2 -17 -1 -13 -13 5 -12 4 -13 -7 -5 -8 7 -17 8 -21 4
-4 -4 -11 -7 -14 -7 -4 -1 -17 -6 -28 -13 -12 -6 -24 -9 -27 -5 -4 3 -13 0
-22 -7 -8 -7 -22 -10 -30 -6 -8 3 -15 1 -15 -5 0 -6 -4 -8 -9 -4 -5 3 -13 0
-16 -6 -4 -5 -13 -8 -21 -5 -8 3 -14 2 -14 -2 0 -7 -18 -11 -63 -12 -9 -1 -15
-5 -12 -10 3 -6 -1 -7 -9 -4 -8 3 -24 0 -36 -6 -18 -10 -21 -10 -14 2 6 10 5
11 -7 2 -8 -7 -25 -12 -39 -13 -31 0 -52 -5 -66 -13 -5 -4 -19 -5 -30 -4 -10
2 -23 1 -29 -2 -5 -4 -19 -7 -30 -8 -11 -1 -29 -5 -39 -10 -12 -4 -17 -4 -13
3 3 5 0 10 -7 10 -8 0 -12 -6 -9 -13 3 -9 -3 -12 -22 -8 -15 3 -33 0 -41 -7
-11 -9 -14 -9 -14 0 0 9 -6 9 -22 1 l-23 -11 22 19 c12 11 20 22 17 25 -3 3 4
8 15 12 11 3 23 15 26 26 4 10 11 17 16 14 5 -4 9 1 9 9 0 9 7 16 15 16 8 0
14 4 13 9 -3 8 72 80 84 81 3 0 21 12 39 28 18 15 30 20 25 12 -4 -8 0 -6 9 5
9 11 18 19 20 18 11 -6 26 -2 22 5 -3 4 6 8 19 9 47 4 54 6 54 17 0 6 5 4 10
-4 6 -10 10 -11 10 -2 0 6 6 12 14 12 8 0 17 -6 19 -12 3 -8 6 -6 6 5 1 15 4
16 24 6 21 -12 21 -11 7 6 -14 17 -13 18 4 8 12 -6 31 -7 48 -3z m208 -410 c0
-5 -5 -10 -11 -10 -5 0 -7 5 -4 10 3 6 8 10 11 10 2 0 4 -4 4 -10z m-711 -55
c5 2 8 -3 8 -13 0 -35 3 -43 15 -36 7 5 8 3 4 -5 -5 -7 -15 -10 -23 -6 -13 4
-14 3 -3 -10 7 -8 17 -12 24 -8 6 4 4 -2 -4 -13 -22 -29 -24 -30 -17 -12 7 19
-19 33 -29 16 -4 -7 -3 -8 4 -4 7 4 12 1 12 -8 0 -8 -5 -18 -12 -22 -7 -4 -8
-3 -4 4 4 7 1 12 -9 12 -9 0 -14 -4 -11 -9 3 -5 -24 -8 -62 -6 -37 1 -77 -1
-90 -6 -15 -6 -21 -5 -17 1 3 6 -1 10 -10 10 -9 0 -13 5 -10 10 4 6 11 7 17 4
7 -4 8 -2 4 5 -4 6 -11 9 -16 6 -5 -3 -11 -1 -14 4 -4 5 5 8 19 6 14 -1 28 2
32 8 3 6 1 7 -4 4 -18 -11 -23 19 -7 41 12 18 18 20 39 10 13 -6 22 -14 20
-19 -3 -4 -2 -10 3 -13 4 -2 8 6 8 19 0 14 -5 21 -12 18 -7 -2 -14 -1 -17 4
-3 5 5 10 19 11 13 1 24 -4 24 -11 0 -7 4 -6 10 4 6 11 22 15 50 14 23 -1 40
3 41 9 1 6 3 3 6 -7 2 -9 8 -15 12 -12z m934 -182 c-7 -2 -13 -11 -13 -19 0
-8 -5 -14 -11 -14 -5 0 -7 -5 -3 -12 4 -7 3 -8 -4 -4 -9 5 -9 13 -1 28 8 15 8
19 0 14 -6 -4 -11 -2 -11 3 0 6 12 11 28 10 15 0 21 -3 15 -6z m-1427 -218 c0
-19 -4 -35 -8 -35 -5 0 -6 10 -3 21 5 14 3 19 -3 15 -6 -3 -13 -2 -17 3 -3 5
3 14 12 20 10 6 18 11 18 11 0 0 0 -16 1 -35z m597 -62 c-7 -2 -19 -2 -25 0
-7 3 -2 5 12 5 14 0 19 -2 13 -5z m-8 -23 c-3 -5 -12 -10 -18 -10 -7 0 -6 4 3
10 19 12 23 12 15 0z"/>
<path d="M3265 5790 c-3 -5 -1 -10 4 -10 6 0 11 5 11 10 0 6 -2 10 -4 10 -3 0
-8 -4 -11 -10z"/>
<path d="M2195 5610 c3 -5 8 -10 11 -10 2 0 4 5 4 10 0 6 -5 10 -11 10 -5 0
-7 -4 -4 -10z"/>
<path d="M2059 5591 c6 -10 7 -22 3 -26 -4 -5 -1 -5 6 -1 9 5 9 12 2 27 -6 10
-13 19 -16 19 -2 0 0 -8 5 -19z"/>
<path d="M2845 5300 c-3 -5 -1 -10 4 -10 6 0 11 5 11 10 0 6 -2 10 -4 10 -3 0
-8 -4 -11 -10z"/>
<path d="M2831 5144 c0 -11 3 -14 6 -6 3 7 2 16 -1 19 -3 4 -6 -2 -5 -13z"/>
<path d="M2827 5109 c7 -7 15 -10 18 -7 3 3 -2 9 -12 12 -14 6 -15 5 -6 -5z"/>
<path d="M2856 5073 c-6 -14 -5 -15 5 -6 7 7 10 15 7 18 -3 3 -9 -2 -12 -12z"/>
<path d="M2895 5084 c2 -4 0 -15 -6 -25 -7 -14 -6 -17 5 -13 14 5 16 29 3 39
-4 3 -5 2 -2 -1z"/>
<path d="M2931 5076 c-9 -11 -9 -16 1 -22 7 -4 10 -4 6 1 -4 4 -3 14 3 22 6 7
9 13 6 13 -2 0 -10 -6 -16 -14z"/>
<path d="M2126 4992 c-3 -5 1 -9 9 -9 8 0 12 4 9 9 -3 4 -7 8 -9 8 -2 0 -6 -4
-9 -8z"/>
<path d="M2106 4967 c3 -10 9 -15 12 -12 3 3 0 11 -7 18 -10 9 -11 8 -5 -6z"/>
<path d="M2171 4957 c2 -1 13 -10 24 -19 20 -17 21 -16 22 5 2 15 0 18 -6 8
-6 -9 -11 -10 -15 -2 -4 6 -12 11 -18 11 -6 0 -9 -1 -7 -3z"/>
<path d="M3984 4946 c1 -8 5 -18 8 -22 4 -3 5 1 4 10 -1 8 -5 18 -8 22 -4 3
-5 -1 -4 -10z"/>
<path d="M4845 2631 c-3 -5 -2 -12 3 -15 5 -3 9 1 9 9 0 17 -3 19 -12 6z"/>
<path d="M4719 2463 c-13 -16 -12 -17 4 -4 16 13 21 21 13 21 -2 0 -10 -8 -17
-17z"/>
<path d="M3633 2046 c3 -7 1 -18 -4 -23 -6 -6 -5 -10 4 -10 7 0 13 11 13 24 0
13 -4 23 -9 23 -5 0 -7 -6 -4 -14z"/>
<path d="M3690 1991 c0 -6 4 -13 10 -16 6 -3 7 1 4 9 -7 18 -14 21 -14 7z"/>
<path d="M3606 1937 c3 -10 9 -15 12 -12 3 3 0 11 -7 18 -10 9 -11 8 -5 -6z"/>
<path d="M3650 1905 c0 -8 2 -15 4 -15 2 0 6 7 10 15 3 8 1 15 -4 15 -6 0 -10
-7 -10 -15z"/>
<path d="M3651 1853 c-1 -7 -8 -13 -16 -13 -8 0 -15 -4 -15 -8 0 -10 34 -9 38
1 2 4 1 13 -1 20 -4 9 -6 9 -6 0z"/>
<path d="M3583 1324 c0 -7 6 -10 13 -7 13 5 14 -14 1 -34 -6 -9 -3 -11 7 -7 9
3 16 10 16 16 0 5 4 7 9 4 5 -4 8 2 6 11 -1 10 -8 17 -14 16 -6 -2 -11 1 -11
5 0 5 -6 9 -13 9 -8 0 -14 -6 -14 -13z"/>
<path d="M3445 1310 c-3 -5 -1 -10 5 -10 6 0 8 -5 4 -12 -4 -7 -3 -8 4 -4 6 4
9 13 5 21 -6 18 -10 19 -18 5z"/>
<path d="M1480 5460 c-9 -6 -10 -10 -3 -10 6 0 15 5 18 10 8 12 4 12 -15 0z"/>
<path d="M4474 4863 c4 -6 0 -14 -6 -16 -8 -3 -5 -6 5 -6 11 -1 17 -7 14 -13
-2 -7 -10 -12 -16 -10 -7 1 -10 -2 -6 -8 5 -8 11 -7 21 1 18 15 18 21 -2 45
-8 10 -13 14 -10 7z"/>
<path d="M1356 4696 c-12 -19 -13 -27 -3 -32 6 -4 9 -3 4 1 -4 5 0 17 10 27 9
10 14 20 11 23 -3 3 -13 -6 -22 -19z"/>
<path d="M1341 4623 c7 -12 15 -20 18 -17 3 2 -3 12 -13 22 -17 16 -18 16 -5
-5z"/>
<path d="M1313 4515 c0 -8 4 -15 9 -15 4 0 8 4 8 9 0 6 -4 12 -8 15 -5 3 -9
-1 -9 -9z"/>
<path d="M1278 4503 c7 -3 16 -2 19 1 4 3 -2 6 -13 5 -11 0 -14 -3 -6 -6z"/>
<path d="M1901 4474 c0 -11 3 -14 6 -6 3 7 2 16 -1 19 -3 4 -6 -2 -5 -13z"/>
<path d="M1353 4359 c-2 -23 3 -25 10 -4 4 8 3 16 -1 19 -4 3 -9 -4 -9 -15z"/>
<path d="M1312 4331 c-11 -7 -11 -9 0 -14 9 -3 15 1 15 9 0 8 -1 14 -1 14 -1
0 -7 -4 -14 -9z"/>
<path d="M1631 4303 c7 -12 15 -20 18 -17 3 2 -3 12 -13 22 -17 16 -18 16 -5
-5z"/>
<path d="M1320 4290 c-9 -6 -10 -10 -3 -10 6 0 15 5 18 10 8 12 4 12 -15 0z"/>
<path d="M1635 4250 c3 -5 8 -10 11 -10 2 0 4 5 4 10 0 6 -5 10 -11 10 -5 0
-7 -4 -4 -10z"/>
<path d="M3805 3771 c-3 -6 -12 -8 -20 -4 -8 3 -15 1 -15 -5 0 -5 -13 -8 -30
-6 -16 2 -30 0 -30 -4 0 -4 -14 -9 -32 -10 -17 -2 -38 -8 -46 -14 -10 -9 -16
-8 -23 3 -8 12 -10 12 -18 0 -5 -8 -16 -11 -25 -8 -9 4 -16 2 -16 -2 0 -5 -8
-8 -17 -7 -10 2 -21 -2 -25 -8 -5 -7 -8 -6 -8 4 0 11 -2 12 -8 3 -4 -7 -26
-14 -47 -16 -22 -1 -46 -6 -53 -11 -7 -4 -16 -5 -19 -2 -4 3 -17 -1 -29 -9
-13 -8 -25 -11 -28 -7 -6 10 -33 8 -58 -2 -9 -4 -22 -4 -29 0 -8 5 -9 3 -4 -6
6 -10 3 -12 -13 -8 -12 4 -24 2 -27 -3 -3 -4 -12 -6 -20 -2 -8 3 -15 1 -15 -5
0 -5 -14 -8 -31 -6 -22 3 -28 0 -23 -9 6 -9 3 -8 -8 1 -12 9 -18 10 -23 2 -4
-6 -12 -9 -18 -7 -7 2 -18 -3 -25 -12 -8 -9 -11 -10 -7 -3 7 14 -21 17 -30 2
-3 -5 -11 -10 -16 -10 -6 0 -7 5 -4 10 3 6 2 10 -3 10 -6 0 -13 -7 -16 -16 -4
-11 -13 -14 -31 -10 -14 4 -25 2 -25 -2 0 -5 -12 -8 -27 -7 -16 1 -34 -2 -40
-8 -9 -6 -13 -6 -13 2 0 8 -6 6 -16 -4 -14 -13 -19 -14 -25 -3 -6 9 -9 10 -9
1 0 -7 -7 -10 -15 -7 -8 4 -15 2 -15 -4 0 -6 -10 -8 -22 -4 -16 4 -19 2 -13
-9 7 -11 6 -12 -6 -2 -12 10 -18 10 -29 0 -10 -10 -11 -9 -5 1 6 12 3 12 -15
2 -12 -6 -28 -9 -36 -6 -9 3 -12 1 -9 -4 4 -7 -3 -9 -19 -6 -14 3 -26 1 -26
-4 0 -5 -9 -7 -20 -5 -11 2 -22 0 -25 -5 -3 -4 -14 -6 -25 -3 -11 3 -20 1 -20
-4 0 -13 -33 -12 -42 1 -5 7 -8 4 -8 -6 0 -10 -5 -18 -11 -18 -5 0 -7 6 -4 13
4 6 -1 3 -9 -7 -9 -11 -16 -15 -16 -10 0 6 -7 11 -15 11 -8 0 -12 -3 -10 -7 2
-4 -15 -7 -37 -8 -23 -1 -44 -6 -47 -10 -3 -4 -13 -7 -21 -7 -8 0 -35 -3 -60
-8 -25 -4 -55 -8 -68 -7 -16 0 -21 -4 -16 -13 5 -7 0 -6 -11 3 -15 12 -17 12
-10 1 6 -11 4 -13 -7 -9 -8 4 -21 2 -29 -2 -8 -6 -16 -4 -21 3 -6 9 -8 9 -8 0
0 -8 -13 -13 -31 -13 -18 0 -28 -4 -24 -10 8 -12 -17 -9 -26 3 -3 5 -13 1 -22
-7 -11 -12 -17 -13 -20 -3 -4 9 -6 9 -6 0 -1 -7 -8 -10 -18 -6 -12 5 -14 3 -8
-8 8 -12 6 -12 -8 0 -13 10 -17 10 -17 1 0 -9 -4 -9 -17 1 -12 10 -15 11 -9 1
6 -9 1 -11 -18 -8 -18 3 -24 1 -20 -6 5 -7 1 -9 -9 -5 -10 4 -17 1 -17 -6 0
-8 -3 -8 -9 2 -6 10 -10 10 -16 1 -4 -6 -13 -9 -21 -6 -8 3 -14 1 -14 -5 0 -6
-6 -7 -12 -2 -20 12 -38 12 -35 1 2 -9 -29 -16 -95 -21 -14 -1 -30 -5 -34 -9
-12 -12 -42 -9 -47 5 -3 7 -6 4 -6 -6 -1 -14 -6 -17 -21 -12 -12 4 -28 1 -37
-7 -14 -11 -16 -11 -8 2 7 12 6 13 -6 4 -8 -6 -28 -11 -46 -10 -17 0 -29 -2
-27 -5 5 -9 -27 -21 -34 -14 -3 3 1 5 8 5 7 0 11 2 8 5 -9 9 -38 -7 -32 -17 4
-6 -3 -5 -15 1 -15 8 -21 9 -21 1 0 -6 -4 -9 -9 -6 -5 4 -12 0 -14 -6 -4 -10
-6 -10 -6 -1 -1 7 -8 10 -16 7 -8 -4 -12 -10 -9 -15 3 -5 1 -9 -5 -9 -5 0 -13
4 -16 10 -4 6 -16 3 -33 -8 -18 -12 -24 -13 -18 -3 7 11 6 12 -5 5 -8 -4 -22
-10 -31 -11 -10 -2 -26 -4 -35 -6 -10 -1 -24 -7 -32 -11 -10 -7 -12 -5 -6 5 5
9 1 8 -11 -3 -14 -12 -24 -14 -37 -7 -12 7 -17 6 -17 -2 0 -7 -3 -9 -7 -6 -3
4 -13 1 -21 -6 -13 -10 -14 -9 -7 2 6 11 4 13 -9 8 -10 -4 -20 -7 -22 -7 -3 0
-2 -5 2 -11 4 -7 -1 -7 -16 1 -18 10 -21 9 -15 -1 6 -9 3 -11 -8 -6 -9 3 -19
2 -23 -4 -3 -6 -11 -8 -17 -6 -14 4 -40 -19 -56 -50 -9 -18 -9 -23 1 -23 10 0
10 -2 -1 -9 -11 -7 -11 -10 2 -17 9 -5 17 -13 19 -19 2 -5 6 -9 11 -7 4 1 7
-2 7 -8 0 -5 8 -10 18 -10 14 0 15 -2 2 -10 -12 -8 -11 -10 8 -11 37 -2 41 -4
54 -19 11 -12 10 -12 -7 0 -19 14 -19 14 -6 -3 8 -10 22 -16 33 -14 10 3 21 0
25 -5 3 -7 1 -8 -5 -4 -7 4 -12 5 -12 2 0 -3 16 -12 36 -21 23 -9 33 -19 28
-26 -5 -8 -2 -10 9 -6 9 3 26 -4 42 -19 14 -13 35 -24 46 -24 10 0 19 -6 19
-14 0 -10 7 -13 20 -11 11 2 18 0 15 -4 -5 -9 23 -26 38 -23 4 1 7 -5 7 -13 0
-8 9 -15 21 -15 11 0 18 -4 15 -8 -2 -4 4 -9 15 -9 10 -1 26 -9 35 -18 9 -8
29 -22 45 -31 19 -9 27 -19 22 -27 -4 -7 0 -7 10 2 15 12 17 11 17 -4 0 -10 3
-15 6 -12 4 3 18 -2 32 -13 13 -11 28 -17 33 -14 5 3 9 -2 9 -11 0 -9 4 -14 9
-10 5 3 17 -3 27 -12 10 -10 20 -18 23 -18 3 0 5 -4 3 -8 -1 -5 2 -6 8 -2 5 3
10 0 10 -7 0 -9 3 -9 10 2 8 13 10 12 10 -3 0 -10 3 -16 8 -14 4 3 13 -1 20
-9 7 -8 8 -14 2 -14 -5 0 -10 -8 -10 -17 0 -9 -3 -14 -6 -10 -3 3 -17 -6 -30
-21 -20 -22 -23 -23 -18 -7 4 14 0 12 -13 -7 -15 -22 -22 -25 -32 -15 -10 9
-11 8 -5 -8 4 -11 4 -17 0 -13 -11 9 -36 -14 -28 -26 3 -5 0 -6 -6 -2 -6 3
-13 2 -17 -4 -4 -6 -10 -8 -15 -5 -5 3 -12 0 -16 -6 -5 -8 -3 -9 6 -4 9 5 11
4 6 -3 -4 -7 -14 -12 -22 -12 -8 0 -14 -4 -14 -10 0 -5 -6 -10 -14 -10 -8 0
-23 -10 -33 -22 -10 -13 -25 -24 -33 -26 -8 -2 -17 -8 -18 -13 -2 -5 -8 -7
-13 -3 -5 3 -9 0 -9 -6 0 -6 -11 -15 -25 -20 -14 -5 -28 -16 -31 -24 -3 -9
-13 -12 -22 -9 -9 4 -14 3 -10 -1 8 -10 -14 -36 -25 -29 -4 2 -10 -3 -13 -11
-3 -9 -10 -14 -14 -11 -4 3 -11 -2 -14 -11 -3 -9 -13 -14 -21 -10 -8 3 -17 0
-21 -6 -5 -7 -2 -8 7 -4 8 4 3 -1 -11 -12 -14 -12 -26 -19 -28 -17 -2 2 -14
-7 -27 -20 -12 -14 -25 -22 -28 -18 -4 3 -7 1 -7 -5 0 -7 -7 -12 -16 -12 -9 0
-12 -5 -8 -12 5 -8 2 -9 -9 -5 -10 4 -16 2 -14 -5 1 -7 -3 -12 -9 -13 -6 0
-26 -12 -44 -27 -18 -15 -38 -25 -43 -21 -6 3 -7 1 -4 -5 9 -14 -3 -43 -14
-36 -5 3 -9 -1 -9 -9 0 -8 -7 -17 -15 -21 -8 -3 -15 -13 -15 -21 0 -9 -5 -13
-10 -10 -6 3 -10 -3 -10 -15 0 -12 -4 -18 -10 -15 -5 3 -10 -3 -10 -14 0 -11
-5 -23 -10 -26 -6 -4 -8 -11 -5 -16 4 -5 1 -9 -6 -9 -6 0 -9 -8 -6 -20 3 -11
1 -18 -4 -14 -5 3 -9 -9 -9 -26 0 -17 -3 -29 -7 -27 -5 3 -8 -6 -8 -19 0 -13
4 -24 9 -24 5 0 4 -6 -3 -13 -8 -10 -7 -17 1 -25 9 -9 9 -12 -1 -12 -10 0 -11
-3 -2 -13 6 -8 9 -23 6 -36 -2 -14 0 -19 7 -15 7 5 9 1 5 -9 -3 -10 -2 -17 3
-17 5 0 7 -6 4 -13 -3 -8 2 -20 11 -27 8 -7 15 -19 15 -26 0 -8 5 -14 10 -14
6 0 10 -7 10 -16 0 -8 5 -12 10 -9 6 3 10 1 10 -5 0 -6 4 -8 10 -5 6 3 7 -1 4
-9 -3 -9 -1 -16 6 -16 12 0 41 -24 37 -31 -1 -3 2 -1 7 3 5 3 19 -4 33 -18 24
-25 39 -32 28 -14 -3 6 -3 10 0 10 10 0 35 -27 30 -32 -3 -2 -1 -27 4 -56 6
-38 5 -52 -5 -56 -10 -4 -10 -12 3 -37 12 -24 13 -33 3 -39 -9 -6 -9 -9 0 -12
7 -2 4 -12 -9 -27 -17 -20 -19 -27 -8 -39 10 -13 9 -15 -5 -10 -14 6 -15 4 -2
-20 7 -15 10 -28 6 -29 -11 -4 -5 -87 7 -91 7 -2 6 -8 -2 -17 -7 -7 -16 -11
-21 -8 -4 3 0 -6 9 -21 9 -14 21 -23 26 -20 5 3 9 0 9 -5 0 -6 8 -3 18 6 17
18 26 117 10 106 -5 -2 -8 1 -8 6 0 6 3 11 8 11 4 0 7 31 7 69 0 55 3 67 14
63 8 -3 12 -1 8 5 -4 5 0 19 8 29 8 10 14 24 15 29 0 6 -5 3 -11 -5 -9 -12
-10 -12 -5 3 3 10 6 21 6 23 0 2 4 4 10 4 5 0 9 -3 9 -7 -5 -29 2 -53 14 -47
7 5 6 0 -3 -11 -9 -11 -10 -16 -2 -11 8 5 12 -2 12 -24 0 -22 -4 -29 -12 -24
-10 6 -10 4 0 -8 10 -13 10 -19 -3 -32 -12 -12 -13 -16 -3 -16 10 0 9 -3 -2
-10 -13 -8 -13 -10 2 -10 9 0 18 -6 20 -12 8 -22 42 22 42 53 1 16 5 29 9 28
13 -1 36 34 30 45 -4 5 -1 6 5 2 6 -4 8 -14 5 -24 -6 -16 -6 -16 11 1 9 9 22
17 27 17 6 0 7 5 4 10 -3 6 -1 10 5 10 7 0 7 7 -1 23 -11 20 -11 21 5 8 16
-13 16 -12 4 15 -7 16 -17 32 -23 36 -5 4 1 8 15 8 19 0 22 3 11 9 -13 8 -13
12 0 27 9 11 9 15 2 10 -7 -4 -13 -3 -13 3 0 5 6 12 13 14 9 4 8 6 -2 6 -11 1
-11 4 0 18 8 9 9 14 4 11 -17 -10 -10 41 8 59 13 13 20 14 39 5 l23 -12 -25 5
c-22 5 -23 4 -7 -5 10 -7 26 -9 35 -6 15 5 15 5 2 -6 -9 -7 -15 -25 -13 -41 1
-16 -2 -25 -8 -21 -7 4 -9 -6 -7 -27 6 -47 54 -45 62 3 1 7 6 19 10 27 6 9 5
12 -2 7 -6 -3 -14 -1 -18 5 -4 8 -3 9 5 5 6 -4 14 0 17 8 3 9 13 16 21 16 10
0 13 6 9 16 -3 9 -6 20 -6 25 0 6 -4 8 -9 5 -5 -4 -7 4 -4 16 4 19 3 20 -6 8
-9 -13 -11 -12 -11 3 0 10 -4 15 -10 12 -5 -3 -10 -1 -10 4 0 6 6 11 14 11 8
0 17 7 20 16 3 8 10 12 16 9 5 -3 10 -1 10 6 0 7 3 9 7 6 3 -4 13 2 20 13 8
11 18 18 23 15 5 -3 11 -1 15 5 4 6 11 8 16 5 5 -3 6 2 2 11 -4 12 -3 15 5 10
7 -4 15 0 18 9 6 13 8 14 15 3 7 -10 9 -9 9 5 0 9 7 17 16 17 8 0 12 5 9 10
-3 6 -1 10 4 10 6 0 11 -5 11 -11 0 -5 4 -8 8 -5 11 7 12 -75 2 -89 -4 -5 -4
-19 1 -30 5 -13 8 -15 8 -5 1 13 2 13 11 0 6 -9 10 -11 10 -3 0 7 6 10 13 7 8
-3 20 3 28 12 8 10 9 15 2 11 -9 -6 -10 2 -6 29 4 25 2 39 -8 45 -11 7 -12 9
0 9 7 0 11 6 7 15 -3 8 -2 15 2 15 4 0 7 15 7 33 0 24 4 32 17 31 11 -1 14 4
11 14 -4 9 -2 13 4 9 6 -4 13 -3 15 2 1 5 8 4 14 -3 9 -9 7 -22 -7 -51 -23
-47 -23 -51 -4 -35 12 10 15 9 15 -6 0 -14 3 -16 9 -6 4 7 14 12 22 10 10 -2
14 7 14 30 0 17 3 32 8 32 4 0 5 5 1 12 -5 8 -2 9 10 5 11 -5 15 -3 10 5 -5 7
-2 9 7 6 10 -4 14 3 14 27 0 26 -3 31 -13 23 -9 -8 -11 -7 -6 6 3 9 10 16 16
16 5 0 7 4 4 9 -3 4 4 8 16 7 12 -1 22 -9 24 -19 1 -10 -2 -14 -9 -10 -7 4 -8
0 -3 -13 7 -17 10 -48 7 -82 -1 -7 -7 -10 -14 -7 -6 4 -4 0 5 -8 10 -8 15 -16
12 -19 -3 -3 6 -5 20 -4 13 0 24 6 23 11 -1 6 3 9 9 8 8 -1 10 6 6 19 -4 16
-2 19 9 13 8 -5 5 1 -5 13 -11 13 -14 22 -7 22 8 0 9 5 1 19 -14 27 -13 34 4
28 10 -4 13 -1 9 8 -3 8 -10 12 -16 8 -6 -4 -7 -1 -2 8 5 7 10 20 10 29 1 8
14 29 30 45 15 17 25 23 21 15 -4 -8 0 -6 8 4 9 11 16 14 16 7 0 -7 6 -9 13
-6 6 4 4 0 -6 -8 -12 -10 -15 -17 -7 -22 8 -5 7 -11 -2 -22 -7 -8 -14 -27 -15
-42 -3 -20 -1 -23 7 -11 8 13 10 12 10 -3 0 -10 5 -15 10 -12 6 4 7 11 4 17
-4 7 0 7 13 0 15 -9 20 -8 20 3 0 8 -5 11 -11 8 -6 -4 -5 0 1 8 10 12 10 18 0
29 -10 10 -9 11 2 5 11 -6 13 -4 8 8 -6 16 3 22 26 18 5 -1 6 3 2 9 -3 5 -1
10 5 10 7 0 8 6 1 19 -6 10 -7 21 -4 25 3 3 0 6 -7 6 -10 0 -11 3 -3 11 17 17
32 2 27 -26 -2 -14 -1 -24 3 -23 5 2 8 -1 8 -7 0 -5 -4 -9 -10 -7 -5 2 -2 -5
8 -16 11 -12 15 -26 11 -37 -6 -14 -4 -16 6 -10 10 6 12 4 7 -8 -3 -10 -2 -17
3 -17 5 0 9 -8 9 -17 -1 -30 7 -73 14 -80 4 -3 7 -19 7 -35 0 -15 5 -28 11
-28 6 0 8 -7 5 -16 -4 -10 1 -26 11 -37 10 -11 12 -17 6 -13 -16 9 -18 -20 -3
-29 6 -4 8 -11 5 -16 -4 -5 -2 -9 3 -9 6 0 8 -9 5 -20 -3 -11 -1 -20 4 -20 5
0 10 -12 11 -27 1 -15 8 -30 15 -35 8 -5 9 -8 0 -8 -14 0 -11 -23 6 -44 7 -9
10 -16 6 -16 -4 0 -1 -8 6 -17 12 -15 12 -16 -1 -8 -12 7 -13 6 -4 -6 18 -24
25 -51 11 -44 -6 4 -3 -1 7 -9 15 -12 16 -16 5 -16 -10 0 -11 -2 -2 -8 7 -4
13 -22 15 -40 1 -18 6 -32 11 -32 4 0 7 -6 6 -12 -3 -27 1 -39 13 -32 7 5 8 3
3 -7 -12 -18 -14 -49 -3 -43 4 3 8 -3 8 -14 0 -10 10 -27 23 -38 25 -21 63
-32 52 -15 -3 6 0 9 7 6 8 -3 22 2 33 11 11 8 14 13 8 9 -19 -9 -16 8 5 27 28
27 43 48 35 48 -4 0 -2 4 6 9 8 5 16 18 17 27 2 10 11 24 20 31 10 7 15 16 11
19 -4 4 3 15 14 25 11 9 20 21 20 26 -1 4 5 15 13 25 8 9 12 19 9 22 -4 3 0 6
7 6 7 0 10 3 7 7 -4 3 1 12 11 20 10 9 11 11 2 7 -13 -7 -13 -5 -1 9 7 9 17
14 22 11 5 -3 6 3 2 12 -5 13 -3 15 7 9 9 -6 11 -4 6 4 -5 7 0 19 10 27 11 9
13 13 4 9 -10 -4 -9 -2 2 8 10 8 15 17 11 20 -3 4 -1 7 5 7 7 0 12 6 12 14 0
8 6 21 14 28 7 8 17 24 20 36 4 12 16 27 26 32 11 6 17 17 14 25 -4 8 -1 15 5
15 6 0 10 6 9 13 -2 6 3 11 10 9 6 -1 11 1 10 5 -1 5 5 22 12 38 7 17 13 33
12 38 -1 4 5 7 14 7 8 0 13 4 9 9 -3 6 3 14 12 20 14 8 15 11 3 11 -12 0 -11
3 3 11 9 5 17 17 17 25 0 8 4 13 9 10 5 -3 12 1 15 10 4 10 2 13 -7 8 -6 -4 2
8 18 26 17 18 24 30 17 26 -11 -7 -11 -4 0 13 7 12 17 21 21 21 5 0 6 7 3 16
-3 8 -2 12 4 9 6 -3 10 1 10 10 0 10 5 13 12 9 6 -4 8 -3 4 4 -3 6 -2 13 4 17
6 4 8 11 5 16 -4 5 -1 9 4 9 6 0 11 7 11 15 0 9 7 18 15 21 8 4 12 10 9 15 -3
5 2 12 10 15 9 3 14 10 11 14 -3 5 2 15 10 24 9 8 17 19 18 23 1 4 6 7 10 5 5
-1 5 3 1 9 -4 7 1 18 11 26 11 7 15 13 11 13 -4 0 2 13 13 29 11 15 18 31 14
35 -3 3 -1 6 5 6 6 0 14 9 17 20 4 11 10 18 15 15 4 -3 6 4 3 15 -4 14 0 20
11 20 10 0 13 5 9 17 -4 11 -3 14 5 9 7 -4 12 -2 12 3 0 6 0 13 0 16 0 2 12
17 25 31 14 15 25 33 25 40 0 8 3 14 8 14 8 0 38 61 34 73 -2 6 12 11 29 9 3
-1 6 5 6 13 0 8 -4 12 -9 9 -4 -3 -5 2 -2 10 3 9 10 13 15 10 5 -3 9 2 9 11 0
10 5 13 13 9 8 -5 8 -2 -2 9 -12 15 -11 17 3 17 10 0 14 5 11 10 -3 6 -1 10 5
10 6 0 8 5 5 10 -3 6 -2 10 2 10 5 0 14 9 21 21 10 15 10 19 1 14 -8 -5 -10
-4 -5 3 4 7 14 12 23 12 12 0 13 3 4 14 -9 11 -9 16 0 22 8 5 10 3 5 -7 -4 -8
-1 -5 8 5 8 10 13 23 10 28 -3 4 2 11 10 14 9 3 16 13 16 21 0 8 11 24 25 35
14 11 23 23 20 28 -9 14 6 40 24 40 13 0 13 2 2 9 -11 7 -10 10 4 18 9 5 18
14 18 19 1 5 6 8 10 6 5 -1 6 2 2 7 -3 6 1 21 10 34 8 13 12 28 8 32 -5 5 1 3
11 -5 14 -10 17 -11 12 -2 -4 7 -2 19 4 27 6 8 9 19 5 25 -4 6 -1 9 7 8 7 -2
12 3 10 10 -1 6 3 12 9 12 5 0 8 4 5 9 -3 5 1 12 10 15 8 3 12 10 9 16 -3 5
-1 10 5 10 6 0 8 5 5 10 -3 6 -1 10 6 10 7 0 9 3 6 7 -4 3 2 12 13 20 12 8 17
20 13 30 -4 11 -3 14 5 9 7 -4 12 -1 12 8 0 9 5 16 11 16 5 0 7 5 4 10 -3 6 1
13 9 16 9 3 13 10 10 16 -3 5 2 16 12 24 11 9 12 12 4 8 -13 -7 -13 -5 -1 9 7
9 17 14 22 11 5 -3 6 2 3 10 -3 9 -1 16 5 16 6 0 11 9 11 21 0 11 5 17 10 14
6 -3 10 1 10 9 0 9 9 25 20 36 11 11 15 20 8 20 -6 0 -2 8 9 18 11 9 23 27 27
40 4 12 11 20 16 17 5 -3 7 4 5 15 -2 12 1 20 10 20 8 0 12 8 10 20 -2 11 1
19 8 17 7 -1 11 4 10 11 -2 6 1 12 6 12 5 0 11 9 14 21 3 12 10 18 15 15 6 -4
8 3 4 16 -3 12 -1 19 5 15 5 -3 10 0 10 8 0 8 -5 11 -11 8 -7 -4 -6 -1 1 8 9
11 9 19 0 36 -12 21 -15 23 -38 23 -5 0 -7 5 -4 10 3 6 -1 11 -9 11 -24 2 -30
4 -43 12 -6 4 -14 3 -18 -2z m-112 -192 c-3 -10 -10 -22 -16 -26 -6 -3 -7 -1
-3 5 7 11 -5 16 -30 13 -7 -1 -14 7 -17 18 -4 15 0 19 14 16 10 -2 21 1 25 6
10 17 32 -10 27 -32z m-40 -24 c-3 -9 -8 -14 -10 -11 -3 3 -2 9 2 15 9 16 15
13 8 -4z m-503 -65 c0 -5 -5 -10 -11 -10 -5 0 -7 5 -4 10 3 6 8 10 11 10 2 0
4 -4 4 -10z m-49 -57 c13 -17 13 -17 -6 -3 -11 8 -22 16 -24 17 -2 2 0 3 6 3
6 0 17 -8 24 -17z m-17 -12 c3 -5 -1 -11 -9 -14 -9 -4 -12 -1 -8 9 6 16 10 17
17 5z m-4 -45 c0 -2 -7 -7 -16 -10 -8 -3 -12 -2 -9 4 6 10 25 14 25 6z m-30
-30 c0 -2 -7 -9 -15 -16 -13 -11 -14 -10 -9 4 5 14 24 23 24 12z m-372 -66
c-7 -10 -14 -17 -17 -15 -2 3 2 11 9 20 7 8 8 15 2 15 -13 0 -33 -25 -27 -33
3 -4 2 -5 -2 -2 -12 9 -12 34 0 32 7 -1 11 4 9 11 -2 10 2 10 18 2 17 -9 18
-14 8 -30z m382 36 c0 -2 -7 -7 -16 -10 -8 -3 -12 -2 -9 4 6 10 25 14 25 6z
m-1805 -178 c5 4 5 1 1 -5 -7 -13 0 -16 37 -16 9 0 17 -4 17 -9 0 -6 -7 -8
-15 -4 -8 3 -19 -3 -25 -12 -11 -16 -11 -16 -6 0 4 14 0 17 -24 14 -16 -2 -27
0 -25 4 3 4 -2 11 -11 14 -12 5 -15 2 -10 -11 6 -14 4 -15 -5 -6 -18 18 -2 35
23 22 18 -10 20 -9 14 6 -5 14 -4 16 7 7 8 -7 18 -8 22 -4z m-125 -31 c0 -4
-6 -7 -13 -5 -7 2 -12 -1 -12 -6 0 -5 10 -10 22 -11 12 0 19 3 17 7 -3 4 2 5
11 2 9 -4 14 -13 10 -22 -5 -12 -3 -13 10 -2 12 10 19 10 27 2 14 -14 20 -44
7 -37 -5 4 -6 -2 -2 -11 5 -13 3 -16 -10 -11 -11 4 -14 2 -10 -9 3 -7 -1 -14
-8 -14 -7 0 -9 -3 -6 -6 4 -4 14 -1 24 7 15 12 16 12 11 -2 -4 -9 0 -26 7 -36
13 -18 12 -20 -8 -18 -31 3 -31 3 -19 18 8 10 6 13 -8 13 -10 0 -16 -4 -14 -8
7 -12 -29 4 -44 19 -8 7 -18 10 -24 7 -7 -4 -8 -2 -4 4 4 7 1 12 -8 12 -9 0
-16 5 -16 11 0 5 -4 7 -10 4 -5 -3 -10 2 -10 12 0 15 -2 16 -10 3 -9 -14 -15
-7 -11 14 1 5 -5 6 -14 3 -8 -4 -15 -2 -15 3 0 6 -5 10 -11 10 -14 0 -39 26
-32 34 3 3 12 -2 20 -12 10 -13 12 -13 8 -2 -4 11 1 16 15 17 13 1 18 -3 14
-10 -3 -7 1 -4 9 6 10 12 17 15 22 7 5 -8 11 -8 19 -1 7 6 16 8 19 4 4 -3 7
-1 7 5 0 6 9 10 20 9 11 -1 20 -5 20 -10z m1400 3 c0 -5 -2 -10 -4 -10 -3 0
-8 5 -11 10 -3 6 -1 10 4 10 6 0 11 -4 11 -10z m35 -10 c-3 -5 -12 -10 -18
-10 -7 0 -6 4 3 10 19 12 23 12 15 0z m130 -329 c3 -5 2 -12 -3 -15 -5 -3 -9
1 -9 9 0 17 3 19 12 6z m40 -1 c-6 -9 8 -14 28 -11 4 0 16 -8 27 -19 11 -11
15 -20 9 -20 -6 0 -9 -7 -6 -15 5 -12 2 -12 -19 -3 -18 8 -21 14 -12 20 7 4
11 8 8 9 -3 0 -13 2 -22 4 -10 2 -18 -1 -18 -6 0 -5 -5 -9 -12 -9 -9 0 -9 3 0
12 17 17 15 33 -3 18 -20 -16 -19 -6 1 14 17 18 28 21 19 6z m-65 -21 c0 -4
-9 -7 -19 -6 -11 0 -18 4 -16 7 6 9 35 8 35 -1z m-607 -24 c4 -8 3 -16 -1 -19
-4 -3 -9 4 -9 15 -2 23 3 25 10 4z m-1 -53 c4 -13 -1 -18 -16 -19 -12 -1 -15
1 -8 4 6 3 12 11 12 19 0 20 7 18 12 -4z m644 -41 c0 -16 -3 -17 -14 -9 -12
10 -7 19 13 28 1 0 1 -9 1 -19z m-636 -1 c0 -5 -4 -10 -10 -10 -5 0 -10 5 -10
10 0 6 5 10 10 10 6 0 10 -4 10 -10z m20 -20 c0 -5 -5 -10 -11 -10 -5 0 -7 5
-4 10 3 6 8 10 11 10 2 0 4 -4 4 -10z m705 -20 c3 -6 -1 -7 -9 -4 -18 7 -21
14 -7 14 6 0 13 -4 16 -10z m60 0 c3 -5 1 -10 -4 -10 -6 0 -11 5 -11 10 0 6 2
10 4 10 3 0 8 -4 11 -10z m0 -60 c-3 -5 -12 -10 -18 -10 -7 0 -6 4 3 10 19 12
23 12 15 0z m10 -20 c-3 -5 -12 -10 -18 -10 -7 0 -6 4 3 10 19 12 23 12 15 0z
m-10 -29 c3 -5 0 -13 -6 -17 -7 -4 -9 -3 -5 4 3 5 0 13 -6 15 -9 4 -10 6 -1 6
6 1 14 -3 18 -8z m-5 -55 c0 -2 -8 -10 -17 -17 -16 -13 -17 -12 -4 4 13 16 21
21 21 13z m-20 -82 c-6 -6 -6 -15 -2 -19 4 -5 1 -5 -6 -1 -10 6 -10 11 -1 22
9 11 9 14 0 14 -7 0 -9 5 -5 11 4 8 9 7 15 -2 4 -7 4 -18 -1 -25z m-1375 -34
c3 -6 -1 -7 -9 -4 -9 3 -16 1 -16 -5 0 -6 5 -11 12 -11 6 0 1 -11 -12 -25 -13
-14 -20 -25 -17 -25 17 0 22 3 20 11 -2 4 5 5 14 2 12 -5 14 -3 8 7 -6 9 -4
11 5 5 10 -6 9 -11 -6 -22 -10 -8 -18 -18 -17 -23 3 -11 -30 -7 -40 5 -5 6 -7
3 -4 -6 3 -9 1 -21 -4 -26 -5 -5 -1 -9 11 -10 11 -1 20 3 20 8 0 6 -5 7 -12 3
-7 -4 -8 -3 -4 5 10 16 25 4 23 -19 -1 -13 -6 -19 -15 -15 -9 3 -12 0 -9 -9 6
-15 -17 -16 -30 -1 -4 4 -2 5 6 0 9 -5 12 -3 9 6 -3 8 -17 13 -34 12 -16 0
-23 1 -16 4 10 4 10 8 0 21 -9 12 -6 11 10 -2 12 -11 22 -17 22 -13 0 3 3 14
6 24 4 13 3 15 -4 5 -8 -12 -13 -12 -30 -1 -17 11 -24 11 -34 1 -9 -9 -9 -12
0 -12 7 0 12 -5 12 -12 0 -9 -3 -9 -12 0 -14 14 -20 44 -7 36 5 -3 12 2 15 10
3 9 11 13 17 9 6 -4 8 0 4 10 -4 11 -2 14 9 10 7 -3 14 0 14 5 0 6 9 14 20 17
11 4 17 11 14 17 -4 7 -2 8 5 4 6 -4 9 -11 7 -15 -3 -4 1 -8 9 -8 8 0 12 4 9
9 -6 10 4 28 16 28 5 0 12 -4 15 -10z m1392 -72 c2 -17 0 -19 -7 -8 -5 8 -6
18 -4 22 8 12 10 10 11 -14z m-1595 -56 c-7 -2 -10 -7 -8 -11 3 -4 -1 -8 -8
-8 -11 0 -12 4 -3 18 6 10 16 15 21 12 6 -4 5 -8 -2 -11z m568 -16 c0 -2 -7
-3 -15 -3 -8 0 -15 5 -15 10 0 6 -3 7 -6 4 -10 -10 17 -38 30 -30 6 3 3 -3 -6
-14 -10 -11 -18 -24 -18 -29 0 -5 5 -2 10 6 8 13 11 13 22 1 10 -10 10 -12 1
-7 -8 4 -13 1 -13 -7 0 -11 7 -13 22 -9 16 4 19 2 13 -8 -6 -10 -4 -11 6 -4
24 15 39 13 39 -4 0 -15 2 -15 10 -2 7 11 10 11 10 2 0 -7 5 -10 11 -7 6 4 5
-2 -2 -13 -7 -12 -17 -18 -21 -16 -4 3 -8 0 -8 -7 0 -8 -5 -7 -17 2 -14 12
-15 12 -9 0 11 -18 -14 -33 -31 -19 -7 6 -13 7 -13 2 0 -4 -7 1 -16 12 -8 10
-12 13 -8 5 4 -7 -7 -3 -25 10 -35 26 -38 31 -13 23 9 -3 6 2 -8 10 -16 10
-20 16 -10 16 12 1 12 3 1 7 -11 5 -11 7 0 14 10 6 11 9 2 9 -7 0 -13 5 -13
11 0 5 4 8 8 5 4 -3 7 8 6 25 -1 16 2 27 6 24 5 -3 11 -1 15 5 4 6 15 4 31 -6
13 -9 24 -17 24 -18z m445 4 c-3 -5 -16 -10 -28 -9 -21 0 -21 1 -2 9 28 12 37
12 30 0z m16 -13 c-10 -9 -11 -8 -5 6 3 10 9 15 12 12 3 -3 0 -11 -7 -18z
m149 19 c0 -3 -4 -8 -10 -11 -5 -3 -10 -1 -10 4 0 6 5 11 10 11 6 0 10 -2 10
-4z m35 -16 c-3 -5 -14 -10 -23 -9 -14 0 -13 2 3 9 27 11 27 11 20 0z m-1251
-8 c3 -5 -1 -9 -9 -9 -8 0 -12 4 -9 9 3 4 7 8 9 8 2 0 6 -4 9 -8z m996 4 c0
-2 -9 -6 -20 -9 -11 -3 -18 -1 -14 4 5 9 34 13 34 5z m283 -10 c4 -10 1 -13
-8 -9 -8 3 -12 9 -9 14 7 12 11 11 17 -5z m337 -1 c0 -8 -4 -15 -10 -15 -5 0
-7 7 -4 15 4 8 8 15 10 15 2 0 4 -7 4 -15z m-459 -13 c-7 -2 -18 1 -23 6 -8 8
-4 9 13 5 13 -4 18 -8 10 -11z m34 -1 c3 -5 2 -12 -3 -15 -5 -3 -9 1 -9 9 0
17 3 19 12 6z m-298 -18 c0 -9 -4 -10 -14 -2 -7 6 -13 12 -13 14 0 1 6 2 13 2
8 0 14 -6 14 -14z m-120 -28 c0 -8 -4 -12 -9 -9 -5 3 -6 10 -3 15 9 13 12 11
12 -6z m116 1 c7 3 1 -4 -12 -15 -13 -12 -18 -21 -12 -21 13 0 43 -55 34 -64
-4 -3 -1 -6 5 -6 17 0 15 10 -8 48 -11 17 -15 32 -10 32 6 0 10 -5 10 -11 0
-5 4 -8 8 -5 8 5 11 -8 15 -63 1 -16 5 -27 9 -25 4 2 10 -1 14 -7 4 -7 3 -10
-2 -6 -5 3 -18 -2 -29 -10 -20 -15 -20 -15 2 -8 18 5 22 3 17 -8 -3 -8 0 -18
7 -23 7 -4 10 -3 5 4 -3 6 -2 13 3 16 18 11 4 -27 -14 -40 -23 -17 -12 -18 17
-3 15 8 19 8 14 0 -4 -6 -2 -11 3 -11 6 0 11 -5 11 -11 0 -5 -4 -7 -10 -4 -5
3 -10 2 -10 -4 0 -5 8 -15 18 -21 15 -10 14 -10 -5 -5 -12 3 -24 1 -28 -5 -4
-6 -3 -10 2 -9 21 4 33 -2 33 -17 0 -14 -2 -15 -17 -3 -16 12 -17 12 -6 -1 14
-19 11 -52 -5 -58 -7 -2 -9 -9 -6 -15 4 -7 1 -7 -7 1 -8 7 -15 17 -15 23 -1 5
-2 10 -4 12 -8 9 -5 45 4 41 6 -3 2 1 -8 10 -12 9 -19 27 -18 45 0 17 -3 30
-8 28 -4 -1 -7 3 -6 8 0 6 11 10 22 9 14 0 20 5 17 13 -4 9 -9 10 -18 3 -17
-14 -25 -2 -25 37 0 34 -34 113 -49 113 -4 0 -8 7 -8 15 0 11 4 12 13 4 8 -7
14 -6 20 2 5 8 3 9 -6 4 -9 -5 -11 -4 -6 4 4 6 12 9 17 6 5 -4 9 0 10 7 0 10
2 10 6 0 2 -6 10 -10 16 -6z m-411 -38 c-8 -8 -9 -4 -5 13 4 13 8 18 11 10 2
-7 -1 -18 -6 -23z m-611 8 c5 3 9 1 9 -5 0 -5 -6 -12 -12 -15 -10 -3 -8 -9 4
-19 10 -8 15 -17 11 -20 -3 -4 2 -9 11 -13 16 -6 13 -24 -5 -24 -6 0 -7 5 -3
12 5 7 2 8 -7 3 -8 -5 -11 -5 -7 -1 4 4 -2 22 -12 38 -10 17 -16 38 -12 46 4
11 7 12 10 4 2 -7 8 -10 13 -6z m504 -15 c3 -5 2 -12 -3 -15 -5 -3 -9 1 -9 9
0 17 3 19 12 6z m-543 -18 c0 -4 9 -14 20 -21 10 -7 16 -17 13 -22 -3 -5 4
-15 16 -24 24 -16 26 -16 -38 -17 -13 0 -25 -5 -28 -10 -4 -5 -11 -7 -16 -4
-17 11 -49 14 -54 4 -8 -12 -25 -12 -25 1 0 6 5 9 11 8 6 -2 14 4 16 12 4 13
3 13 -6 0 -6 -8 -11 -11 -11 -6 0 5 -7 3 -15 -4 -20 -17 -19 -8 3 17 9 11 25
19 34 17 11 -1 15 3 11 12 -3 9 2 14 17 14 16 0 20 4 16 16 -3 8 -2 12 3 9 5
-3 13 0 16 6 7 11 16 7 17 -8z m675 10 c-3 -5 1 -14 9 -21 11 -10 14 -10 14 0
0 9 3 10 8 2 4 -6 14 -13 22 -16 10 -3 8 -6 -7 -10 -13 -4 -29 1 -41 13 -11
10 -23 15 -26 11 -4 -3 -4 1 0 11 3 9 10 17 16 17 5 0 7 -3 5 -7z m-582 -43
c3 -6 -1 -7 -9 -4 -18 7 -21 14 -7 14 6 0 13 -4 16 -10z m528 -17 c-5 -12 15
-18 41 -14 5 1 6 -5 3 -14 -4 -9 -1 -15 8 -15 17 0 20 -16 6 -24 -5 -4 -12 0
-14 6 -3 7 -6 2 -7 -12 -1 -14 -4 -19 -7 -12 -4 9 -8 10 -18 2 -11 -9 -12 -7
-8 9 5 20 -5 27 -31 22 -5 -1 -4 4 2 12 6 7 10 23 8 34 -3 11 1 20 9 20 7 0
11 -6 8 -14z m127 -3 c0 -5 -2 -10 -4 -10 -3 0 -8 5 -11 10 -3 6 -1 10 4 10 6
0 11 -4 11 -10z m-226 -9 c3 -5 -2 -15 -12 -22 -15 -12 -16 -12 -5 2 7 9 10
19 6 22 -3 4 -4 7 0 7 3 0 8 -4 11 -9z m76 -11 c0 -5 -7 -7 -15 -4 -8 4 -15 8
-15 10 0 2 7 4 15 4 8 0 15 -4 15 -10z m-70 -39 c0 -6 -4 -12 -8 -15 -5 -3 -9
1 -9 9 0 8 4 15 9 15 4 0 8 -4 8 -9z m800 5 c0 -2 -7 -7 -16 -10 -8 -3 -12 -2
-9 4 6 10 25 14 25 6z m15 -16 c-3 -5 8 -16 25 -25 33 -17 35 -22 19 -45 -9
-12 -10 -11 -6 7 3 13 -1 24 -9 27 -8 3 -11 0 -7 -10 3 -7 0 -14 -6 -14 -6 0
-10 3 -10 8 3 19 -2 33 -10 28 -5 -4 -8 2 -6 11 5 24 4 23 11 23 3 0 3 -4 -1
-10z m220 -10 c-3 -4 2 -11 11 -14 8 -3 12 -2 9 3 -3 5 -2 12 3 15 5 3 9 -2 9
-11 0 -9 -9 -18 -19 -21 -10 -2 -18 -8 -18 -12 0 -10 -20 -8 -39 4 -9 6 -12 5
-8 -1 4 -6 0 -14 -9 -17 -9 -4 -14 -9 -11 -13 4 -3 13 0 22 7 9 8 15 9 15 2 0
-6 -8 -15 -17 -21 -17 -9 -16 -10 2 -10 41 -1 54 -5 49 -13 -8 -12 10 -10 26
5 12 10 12 9 1 -5 -7 -10 -10 -18 -7 -18 4 0 4 -5 1 -10 -5 -8 -11 -7 -21 1
-11 9 -14 8 -14 -2 0 -11 -2 -11 -10 1 -5 8 -10 11 -10 6 0 -5 -7 -3 -15 4 -8
6 -19 9 -25 5 -6 -4 -17 1 -24 11 -9 11 -21 15 -35 11 -18 -4 -20 -3 -10 9 9
11 8 14 -3 14 -9 0 -15 10 -15 29 0 23 5 29 24 29 23 0 23 -1 6 -21 -18 -20
-18 -20 6 -4 18 12 29 13 43 6 17 -9 18 -8 9 10 -11 20 -10 20 24 5 32 -13 35
-13 36 3 1 10 1 22 0 26 -1 5 3 6 9 2 6 -3 8 -10 5 -15z m57 -2 c-7 -7 -12 -8
-12 -2 0 14 12 26 19 19 2 -3 -1 -11 -7 -17z m-232 0 c0 -4 -4 -8 -9 -8 -6 0
-12 4 -15 8 -3 5 1 9 9 9 8 0 15 -4 15 -9z m-870 -18 c0 -5 -2 -10 -4 -10 -3
0 -8 5 -11 10 -3 6 -1 10 4 10 6 0 11 -4 11 -10z m33 -16 c7 1 9 1 4 -1 -4 -3
-4 -10 -1 -15 4 -7 2 -8 -5 -4 -6 4 -14 0 -17 -8 -3 -9 -11 -16 -16 -16 -6 0
-5 6 2 15 10 12 10 15 -1 16 -10 0 -11 2 -1 6 6 2 13 12 13 21 1 16 2 16 6 0
2 -9 10 -16 16 -14z m27 -184 c0 -5 -5 -10 -11 -10 -5 0 -7 5 -4 10 3 6 8 10
11 10 2 0 4 -4 4 -10z m660 -205 c8 5 11 4 7 -2 -9 -14 19 -37 36 -30 11 4 13
-3 11 -26 -3 -23 -1 -28 5 -17 6 8 8 17 5 21 -2 4 1 11 7 15 7 4 10 3 6 -2 -3
-5 2 -18 10 -29 11 -14 14 -15 10 -4 -4 13 -1 15 15 11 13 -3 16 -7 8 -12 -7
-5 -9 -13 -5 -21 6 -9 4 -11 -7 -6 -11 4 -14 1 -11 -12 2 -10 -8 -29 -24 -46
-15 -16 -21 -25 -13 -20 13 8 13 7 1 -8 -14 -18 -36 -24 -26 -7 3 6 0 10 -8
10 -13 0 -42 47 -39 63 1 4 -2 7 -8 7 -5 0 -10 5 -10 11 0 5 4 8 8 5 4 -2 8 6
8 19 0 13 -2 23 -5 23 -4 0 -13 0 -21 2 -11 1 -9 4 5 10 14 6 15 9 5 9 -9 1
-16 10 -17 21 -1 11 2 18 8 15 5 -4 9 0 9 7 0 10 2 10 9 -1 5 -8 14 -10 21 -6z
m-1305 -165 c3 -5 0 -10 -7 -10 -9 0 -9 -3 2 -10 13 -8 12 -11 -5 -25 -20 -15
-20 -15 0 -9 15 4 16 3 6 -4 -7 -5 -11 -14 -7 -20 3 -6 1 -14 -5 -18 -8 -5 -9
-3 -4 6 6 10 4 12 -10 6 -15 -5 -16 -4 -5 9 10 12 10 15 -1 15 -10 0 -10 3 -1
12 15 15 16 32 1 23 -6 -4 -5 2 3 14 14 23 24 26 33 11z m76 -64 c-6 -7 -9
-15 -6 -18 3 -3 6 -25 8 -50 2 -35 -1 -44 -11 -41 -7 3 -11 12 -8 19 3 8 -1
14 -9 14 -8 0 -15 5 -15 11 0 5 5 7 10 4 6 -3 11 3 11 14 1 20 4 32 9 49 1 4
2 11 1 15 -1 5 3 6 9 2 8 -5 8 -11 1 -19z"/>
<path d="M3666 3601 c-4 -5 -2 -12 3 -15 5 -4 12 -2 15 3 4 5 2 12 -3 15 -5 4
-12 2 -15 -3z"/>
<path d="M1190 3060 c0 -5 5 -10 11 -10 5 0 7 5 4 10 -3 6 -8 10 -11 10 -2 0
-4 -4 -4 -10z"/>
<path d="M2769 2737 c6 -8 7 -18 3 -22 -4 -5 -1 -5 6 -1 10 6 10 11 1 22 -6 8
-14 14 -16 14 -3 0 0 -6 6 -13z"/>
<path d="M1387 2269 c7 -7 15 -10 18 -7 3 3 -2 9 -12 12 -14 6 -15 5 -6 -5z"/>
<path d="M1760 2175 c-7 -9 -8 -15 -2 -15 5 0 12 7 16 15 3 8 4 15 2 15 -2 0
-9 -7 -16 -15z"/>
<path d="M2150 1840 c-6 -11 -8 -20 -6 -20 3 0 10 9 16 20 6 11 8 20 6 20 -3
0 -10 -9 -16 -20z"/>
<path d="M2150 1740 c-8 -15 -8 -18 3 -14 8 3 14 11 14 19 0 20 -4 19 -17 -5z"/>
<path d="M1020 1986 c0 -9 -4 -15 -9 -11 -17 10 -24 -16 -9 -31 13 -13 16 -13
29 3 12 16 12 17 -2 6 -16 -13 -29 -8 -29 9 0 5 5 6 10 3 11 -7 26 22 16 32
-3 4 -6 -1 -6 -11z"/>
<path d="M1045 1983 c2 -10 4 -25 5 -33 1 -11 3 -11 7 -2 2 6 10 10 16 6 7 -3
5 0 -4 8 -9 7 -16 17 -17 21 0 5 -3 11 -5 14 -3 3 -4 -3 -2 -14z"/>
<path d="M1668 1933 c7 -3 16 -2 19 1 4 3 -2 6 -13 5 -11 0 -14 -3 -6 -6z"/>
<path d="M2515 1790 c3 -5 8 -10 11 -10 2 0 4 5 4 10 0 6 -5 10 -11 10 -5 0
-7 -4 -4 -10z"/>
<path d="M2270 1441 c0 -6 4 -13 10 -16 6 -3 7 1 4 9 -7 18 -14 21 -14 7z"/>
<path d="M2275 1330 c3 -5 8 -10 11 -10 2 0 4 5 4 10 0 6 -5 10 -11 10 -5 0
-7 -4 -4 -10z"/>
<path d="M1128 1333 c7 -3 16 -2 19 1 4 3 -2 6 -13 5 -11 0 -14 -3 -6 -6z"/>
<path d="M2765 1001 c-3 -5 -2 -12 3 -15 5 -3 9 1 9 9 0 17 -3 19 -12 6z"/>
</g>
</svg>
